<svg width="38" height="44" viewBox="0 0 38 44" fill="none" xmlns="http://www.w3.org/2000/svg">
<path d="M22 0.125V11.0625C22 12.3057 22.4939 13.498 23.3729 14.3771C24.252 15.2561 25.4443 15.75 26.6875 15.75H37.625V39.1875C37.625 40.4307 37.1311 41.623 36.2521 42.5021C35.373 43.3811 34.1807 43.875 32.9375 43.875H18.8C18.85 43.625 18.875 43.3625 18.875 43.0938V33.3906C20.646 31.3847 21.7266 28.8633 21.9578 26.1974C22.189 23.5315 21.5585 20.8618 20.1592 18.5809C18.7599 16.3 16.6656 14.5284 14.1843 13.5266C11.703 12.5248 8.96568 12.3457 6.375 13.0156V4.8125C6.375 3.5693 6.86886 2.37701 7.74794 1.49794C8.62701 0.61886 9.8193 0.125 11.0625 0.125H22ZM25.125 0.90625V11.0625C25.125 11.4769 25.2896 11.8743 25.5826 12.1674C25.8757 12.4604 26.2731 12.625 26.6875 12.625H36.8438L25.125 0.90625ZM18.875 25.125C18.875 26.3561 18.6325 27.5752 18.1614 28.7127C17.6902 29.8501 16.9997 30.8836 16.1291 31.7541C15.2586 32.6247 14.2251 33.3152 13.0877 33.7864C11.9502 34.2575 10.7311 34.5 9.5 34.5C8.26886 34.5 7.04977 34.2575 5.91234 33.7864C4.77492 33.3152 3.74142 32.6247 2.87087 31.7541C2.00032 30.8836 1.30977 29.8501 0.838629 28.7127C0.367491 27.5752 0.125 26.3561 0.125 25.125C0.125 22.6386 1.11272 20.254 2.87087 18.4959C4.62903 16.7377 7.0136 15.75 9.5 15.75C11.9864 15.75 14.371 16.7377 16.1291 18.4959C17.8873 20.254 18.875 22.6386 18.875 25.125ZM15.75 35.95C13.8508 37.0497 11.6946 37.6276 9.5 37.625C7.3057 37.6285 5.14949 37.0517 3.25 35.9531V43.0969C3.25041 43.2347 3.2873 43.37 3.35691 43.489C3.42652 43.608 3.52638 43.7065 3.64635 43.7744C3.76632 43.8423 3.90213 43.8773 4.03998 43.8757C4.17784 43.8742 4.31283 43.8362 4.43125 43.7656L9.5 40.75L14.5688 43.7656C14.6874 43.8363 14.8227 43.8743 14.9608 43.8758C15.0989 43.8772 15.2349 43.8419 15.355 43.7736C15.4751 43.7053 15.5749 43.6064 15.6443 43.487C15.7137 43.3676 15.7501 43.2319 15.75 43.0938V35.95Z" fill="#B7BBC0"/>
</svg>
