<svg width="28" height="25" viewBox="0 0 28 25" fill="none" xmlns="http://www.w3.org/2000/svg">
<path d="M14.8522 0.292685C14.2973 0.164808 13.7039 0.164808 13.1489 0.292685L8.17224 1.44019C5.61517 2.02969 3.18672 2.89635 0.963907 4.01269C-0.449426 4.72144 0.220573 6.37519 1.92057 6.37519H26.0806C27.7806 6.37519 28.4506 4.72144 27.0389 4.01269C24.8156 2.89625 22.3865 2.02959 19.8289 1.44019L14.8522 0.292685ZM1.08391 23.2502C1.08391 23.0015 1.2156 22.7631 1.45002 22.5873C1.68444 22.4115 2.00239 22.3127 2.33391 22.3127H25.6672C25.9988 22.3127 26.3167 22.4115 26.5511 22.5873C26.7855 22.7631 26.9172 23.0015 26.9172 23.2502C26.9172 23.4988 26.7855 23.7373 26.5511 23.9131C26.3167 24.0889 25.9988 24.1877 25.6672 24.1877H2.33391C2.00239 24.1877 1.68444 24.0889 1.45002 23.9131C1.2156 23.7373 1.08391 23.4988 1.08391 23.2502ZM4.41724 18.2502C4.41724 18.4988 4.54894 18.7373 4.78336 18.9131C5.01778 19.0889 5.33572 19.1877 5.66724 19.1877C5.99876 19.1877 6.3167 19.0889 6.55112 18.9131C6.78554 18.7373 6.91724 18.4988 6.91724 18.2502V10.7502C6.91724 10.5015 6.78554 10.2631 6.55112 10.0873C6.3167 9.91146 5.99876 9.81269 5.66724 9.81269C5.33572 9.81269 5.01778 9.91146 4.78336 10.0873C4.54894 10.2631 4.41724 10.5015 4.41724 10.7502V18.2502ZM14.0006 19.1877C13.6691 19.1877 13.3511 19.0889 13.1167 18.9131C12.8823 18.7373 12.7506 18.4988 12.7506 18.2502V10.7502C12.7506 10.5015 12.8823 10.2631 13.1167 10.0873C13.3511 9.91146 13.6691 9.81269 14.0006 9.81269C14.3321 9.81269 14.65 9.91146 14.8845 10.0873C15.1189 10.2631 15.2506 10.5015 15.2506 10.7502V18.2502C15.2506 18.4988 15.1189 18.7373 14.8845 18.9131C14.65 19.0889 14.3321 19.1877 14.0006 19.1877ZM21.0839 18.2502C21.0839 18.4988 21.2156 18.7373 21.45 18.9131C21.6844 19.0889 22.0024 19.1877 22.3339 19.1877C22.6654 19.1877 22.9834 19.0889 23.2178 18.9131C23.4522 18.7373 23.5839 18.4988 23.5839 18.2502V10.7502C23.5839 10.5015 23.4522 10.2631 23.2178 10.0873C22.9834 9.91146 22.6654 9.81269 22.3339 9.81269C22.0024 9.81269 21.6844 9.91146 21.45 10.0873C21.2156 10.2631 21.0839 10.5015 21.0839 10.7502V18.2502Z" fill="#2774E8"/>
</svg>
