<svg width="24" height="26" viewBox="0 0 24 26" fill="none" xmlns="http://www.w3.org/2000/svg">
<path d="M23.4013 17.4449C22.3841 15.6953 21.8438 13.184 21.8438 10.1875C21.8438 7.57678 20.8067 5.07298 18.9607 3.22692C17.1146 1.38086 14.6108 0.34375 12.0001 0.34375C9.38937 0.34375 6.88557 1.38086 5.03951 3.22692C3.19345 5.07298 2.15634 7.57678 2.15634 10.1875C2.15634 13.1852 1.61845 15.6953 0.601265 17.4449C0.393705 17.8018 0.283681 18.207 0.282241 18.6198C0.280801 19.0326 0.387996 19.4386 0.593062 19.7969C0.796832 20.1554 1.09259 20.453 1.44981 20.659C1.80702 20.865 2.21275 20.9719 2.62509 20.9688H6.86494C6.98122 22.2503 7.57253 23.4421 8.5227 24.31C9.47288 25.1779 10.7132 25.6591 12.0001 25.6591C13.287 25.6591 14.5273 25.1779 15.4775 24.31C16.4277 23.4421 17.019 22.2503 17.1353 20.9688H21.3751C21.7868 20.9713 22.1918 20.8641 22.5484 20.6581C22.9049 20.4521 23.2001 20.1548 23.4036 19.7969C23.6096 19.4391 23.7178 19.0334 23.7174 18.6206C23.7169 18.2078 23.6079 17.8023 23.4013 17.4449ZM12.0001 22.8438C11.4598 22.8439 10.936 22.6573 10.5175 22.3156C10.0989 21.9739 9.81128 21.4981 9.70322 20.9688H14.297C14.1889 21.4981 13.9013 21.9739 13.4827 22.3156C13.0642 22.6573 12.5404 22.8439 12.0001 22.8438ZM3.40556 18.1562C4.44267 16.0469 4.96884 13.368 4.96884 10.1875C4.96884 8.3227 5.70963 6.53427 7.02825 5.21566C8.34686 3.89704 10.1353 3.15625 12.0001 3.15625C13.8649 3.15625 15.6533 3.89704 16.9719 5.21566C18.2906 6.53427 19.0313 8.3227 19.0313 10.1875C19.0313 13.3668 19.5563 16.0469 20.5935 18.1562H3.40556Z" fill="#24334A"/>
</svg>
