<svg width="24" height="26" viewBox="0 0 24 26" fill="none" xmlns="http://www.w3.org/2000/svg">
<path d="M23.4012 17.4449C22.384 15.6953 21.8438 13.184 21.8438 10.1875C21.8438 7.57678 20.8066 5.07298 18.9606 3.22692C17.1145 1.38086 14.6107 0.34375 12 0.34375C9.38928 0.34375 6.88548 1.38086 5.03942 3.22692C3.19336 5.07298 2.15625 7.57678 2.15625 10.1875C2.15625 13.1852 1.61836 15.6953 0.601174 17.4449C0.393613 17.8018 0.283589 18.207 0.282149 18.6198C0.280709 19.0326 0.387904 19.4386 0.592971 19.7969C0.79674 20.1554 1.0925 20.453 1.44971 20.659C1.80693 20.865 2.21265 20.9719 2.625 20.9688H6.86485C6.98113 22.2503 7.57244 23.4421 8.52261 24.31C9.47278 25.1779 10.7131 25.6591 12 25.6591C13.2869 25.6591 14.5272 25.1779 15.4774 24.31C16.4276 23.4421 17.0189 22.2503 17.1352 20.9688H21.375C21.7868 20.9713 22.1918 20.8641 22.5483 20.6581C22.9048 20.4521 23.2 20.1548 23.4035 19.7969C23.6095 19.4391 23.7177 19.0334 23.7173 18.6206C23.7169 18.2078 23.6078 17.8023 23.4012 17.4449ZM12 22.8438C11.4597 22.8439 10.9359 22.6573 10.5174 22.3156C10.0988 21.9739 9.81119 21.4981 9.70313 20.9688H14.2969C14.1888 21.4981 13.9012 21.9739 13.4826 22.3156C13.0641 22.6573 12.5403 22.8439 12 22.8438ZM3.40547 18.1562C4.44258 16.0469 4.96875 13.368 4.96875 10.1875C4.96875 8.3227 5.70954 6.53427 7.02816 5.21566C8.34677 3.89704 10.1352 3.15625 12 3.15625C13.8648 3.15625 15.6532 3.89704 16.9718 5.21566C18.2905 6.53427 19.0313 8.3227 19.0313 10.1875C19.0313 13.3668 19.5563 16.0469 20.5934 18.1562H3.40547Z" fill="#24334A"/>
</svg>
