<svg width="31" height="24" viewBox="0 0 31 24" fill="none" xmlns="http://www.w3.org/2000/svg">
<path d="M16.5938 23.5312V16.9688H20.9688L15.5 10.4062L10.0312 16.9688H14.4062V23.5312H8.9375V23.4766C8.75375 23.4875 8.57875 23.5312 8.39062 23.5312C6.21502 23.5312 4.12852 22.667 2.59014 21.1286C1.05176 19.5902 0.1875 17.5037 0.1875 15.3281C0.1875 11.1194 3.37031 7.68938 7.45438 7.21906C7.81244 5.3472 8.8116 3.65862 10.28 2.44375C11.7484 1.22888 13.5942 0.563655 15.5 0.5625C17.4061 0.563567 19.2522 1.22871 20.7209 2.44355C22.1897 3.6584 23.1893 5.34702 23.5478 7.21906C27.6319 7.68938 30.8103 11.1194 30.8103 15.3281C30.8103 17.5037 29.9461 19.5902 28.4077 21.1286C26.8693 22.667 24.7828 23.5312 22.6072 23.5312C22.4234 23.5312 22.2462 23.4875 22.0603 23.4766V23.5312H16.5938Z" fill="#2774E8"/>
</svg>
