<svg width="36" height="40" viewBox="0 0 36 40" fill="none" xmlns="http://www.w3.org/2000/svg">
<path d="M23 0C24.3261 0 25.5979 0.526784 26.5355 1.46447C27.4732 2.40215 28 3.67392 28 5V22.5H25.8025L15.5 12.1975C14.0938 10.7909 12.1865 10.0004 10.1975 10H5.5C4.625 10 3.7825 10.15 3 10.425V5C3 3.67392 3.52678 2.40215 4.46447 1.46447C5.40215 0.526784 6.67392 0 8 0H23ZM30.5 22.5C31.375 22.5 32.2175 22.65 33 22.925V10C33 9.12234 32.7689 8.26014 32.3301 7.50007C31.8913 6.74 31.2601 6.10883 30.5 5.67V22.5ZM5.5 12.5C4.17392 12.5 2.90215 13.0268 1.96447 13.9645C1.02678 14.9021 0.5 16.1739 0.5 17.5V33.75C0.5 35.4076 1.15848 36.9973 2.33058 38.1694C3.50269 39.3415 5.0924 40 6.75 40H29.25C30.9076 40 32.4973 39.3415 33.6694 38.1694C34.8415 36.9973 35.5 35.4076 35.5 33.75V30C35.5 28.6739 34.9732 27.4021 34.0355 26.4645C33.0979 25.5268 31.8261 25 30.5 25H25.8025C25.1395 24.9999 24.5037 24.7364 24.035 24.2675L13.7325 13.965C12.795 13.0273 11.5235 12.5003 10.1975 12.5H5.5Z" fill="#B7BBC0"/>
</svg>
