<svg width="30" height="31" viewBox="0 0 30 31" fill="none" xmlns="http://www.w3.org/2000/svg">
<path d="M27.0204 16.4626C26.7866 16.1965 26.6577 15.8544 26.6577 15.5001C26.6577 15.1459 26.7866 14.8037 27.0204 14.5376L28.8871 12.4376C29.0928 12.2082 29.2205 11.9195 29.2519 11.6129C29.2834 11.3064 29.2169 10.9978 29.0621 10.7314L26.1454 5.68553C25.9921 5.41941 25.7588 5.20847 25.4786 5.08278C25.1984 4.95708 24.8857 4.92305 24.585 4.98553L21.8433 5.5397C21.4945 5.61178 21.1313 5.55368 20.8223 5.37636C20.5134 5.19904 20.28 4.91477 20.1662 4.5772L19.2766 1.90844C19.1788 1.61879 18.9924 1.36721 18.7438 1.18926C18.4952 1.01131 18.197 0.915989 17.8912 0.916778H12.0579C11.7399 0.900179 11.4252 0.988129 11.1618 1.16719C10.8985 1.34626 10.701 1.6066 10.5996 1.90844L9.7829 4.5772C9.66915 4.91477 9.43577 5.19904 9.12681 5.37636C8.81785 5.55368 8.45467 5.61178 8.10581 5.5397L5.29123 4.98553C5.0062 4.94525 4.71563 4.99023 4.45611 5.11479C4.1966 5.23936 3.97975 5.43794 3.8329 5.68553L0.91623 10.7314C0.757506 10.9948 0.686138 11.3017 0.71233 11.6081C0.738523 11.9146 0.860934 12.2049 1.06206 12.4376L2.91415 14.5376C3.14795 14.8037 3.27688 15.1459 3.27688 15.5001C3.27688 15.8544 3.14795 16.1965 2.91415 16.4626L1.06206 18.5626C0.860934 18.7953 0.738523 19.0856 0.71233 19.3921C0.686138 19.6985 0.757506 20.0054 0.91623 20.2689L3.8329 25.3147C3.98616 25.5808 4.21953 25.7918 4.49972 25.9174C4.77992 26.0431 5.09264 26.0772 5.39331 26.0147L8.13498 25.4605C8.48384 25.3884 8.84702 25.4465 9.15598 25.6239C9.46494 25.8012 9.69832 26.0854 9.81206 26.423L10.7016 29.0918C10.8031 29.3936 11.0006 29.654 11.2639 29.833C11.5273 30.0121 11.842 30.1 12.16 30.0834H17.9933C18.299 30.0842 18.5973 29.9889 18.8459 29.811C19.0945 29.633 19.2809 29.3814 19.3787 29.0918L20.2683 26.423C20.3821 26.0854 20.6154 25.8012 20.9244 25.6239C21.2334 25.4465 21.5965 25.3884 21.9454 25.4605L24.6871 26.0147C24.9877 26.0772 25.3005 26.0431 25.5807 25.9174C25.8609 25.7918 26.0942 25.5808 26.2475 25.3147L29.1642 20.2689C29.319 20.0024 29.3855 19.6938 29.354 19.3873C29.3226 19.0808 29.1948 18.7921 28.9891 18.5626L27.0204 16.4626ZM24.8475 18.4168L26.0141 19.7293L24.1475 22.9668L22.4266 22.6168C21.3763 22.4021 20.2837 22.5805 19.3563 23.1182C18.4288 23.6558 17.731 24.5153 17.3954 25.5334L16.8412 27.1668H13.1079L12.5829 25.5043C12.2473 24.4861 11.5495 23.6267 10.622 23.089C9.69456 22.5513 8.60197 22.3729 7.55165 22.5876L5.83081 22.9376L3.93498 19.7147L5.10165 18.4022C5.81908 17.6001 6.21571 16.5617 6.21571 15.4855C6.21571 14.4094 5.81908 13.371 5.10165 12.5689L3.93498 11.2564L5.80165 8.04803L7.52248 8.39803C8.5728 8.61273 9.6654 8.43431 10.5929 7.89665C11.5203 7.35899 12.2181 6.49951 12.5537 5.48136L13.1079 3.83344H16.8412L17.3954 5.49594C17.731 6.51409 18.4288 7.37357 19.3563 7.91123C20.2837 8.4489 21.3763 8.62731 22.4266 8.41261L24.1475 8.06261L26.0141 11.3001L24.8475 12.6126C24.1381 13.4129 23.7464 14.4453 23.7464 15.5147C23.7464 16.5841 24.1381 17.6165 24.8475 18.4168ZM14.9746 9.66678C13.8208 9.66678 12.693 10.0089 11.7337 10.6499C10.7745 11.2908 10.0268 12.2019 9.58527 13.2678C9.14375 14.3337 9.02824 15.5066 9.25332 16.6381C9.4784 17.7697 10.034 18.8091 10.8498 19.6249C11.6656 20.4407 12.705 20.9963 13.8365 21.2214C14.9681 21.4464 16.141 21.3309 17.2069 20.8894C18.2728 20.4479 19.1838 19.7002 19.8248 18.7409C20.4658 17.7817 20.8079 16.6538 20.8079 15.5001C20.8079 13.953 20.1933 12.4693 19.0994 11.3753C18.0054 10.2814 16.5217 9.66678 14.9746 9.66678ZM14.9746 18.4168C14.3977 18.4168 13.8338 18.2457 13.3541 17.9252C12.8745 17.6047 12.5007 17.1492 12.2799 16.6163C12.0592 16.0833 12.0014 15.4969 12.1139 14.9311C12.2265 14.3653 12.5043 13.8456 12.9122 13.4377C13.3201 13.0298 13.8398 12.752 14.4056 12.6395C14.9713 12.5269 15.5578 12.5847 16.0907 12.8055C16.6237 13.0262 17.0792 13.4001 17.3997 13.8797C17.7202 14.3593 17.8912 14.9233 17.8912 15.5001C17.8912 16.2737 17.5839 17.0155 17.037 17.5625C16.49 18.1095 15.7481 18.4168 14.9746 18.4168Z" fill="#B7BBC0"/>
</svg>
