<svg width="31" height="25" viewBox="0 0 31 25" fill="none" xmlns="http://www.w3.org/2000/svg">
<path fill-rule="evenodd" clip-rule="evenodd" d="M10.4884 0.773756C10.4016 0.76007 10.3133 0.757985 10.2259 0.767556C8.48787 0.955622 5.84254 1.89389 4.28014 2.74122C4.17695 2.79751 4.08458 2.87168 4.00734 2.96029C3.35841 3.70222 2.76941 4.91122 2.30854 6.05616C1.83321 7.23002 1.44054 8.47002 1.21941 9.36696C0.487809 12.281 0.0889424 15.7798 0.0352091 19.0989C0.0334996 19.2645 0.0732873 19.4279 0.150942 19.5742C0.770942 20.7584 2.10808 21.8558 3.44728 22.6577C4.80094 23.4699 6.38194 24.1106 7.65501 24.2346C7.80754 24.2491 7.96137 24.2281 8.10444 24.1733C8.2475 24.1184 8.37592 24.0312 8.47961 23.9184C8.79788 23.5732 9.33934 22.7672 9.74854 22.141C9.93454 21.8558 10.1102 21.583 10.2466 21.366C11.6147 21.614 13.3301 21.7587 15.5001 21.7587C17.6659 21.7587 19.3813 21.614 20.7494 21.366C20.8858 21.5851 21.0594 21.8558 21.2454 22.139C21.6546 22.7672 22.1961 23.5732 22.5164 23.9184C22.6201 24.0312 22.7485 24.1184 22.8916 24.1733C23.0346 24.2281 23.1885 24.2491 23.341 24.2346C24.6141 24.1106 26.193 23.4699 27.5467 22.6577C28.8859 21.8558 30.223 20.7584 30.8451 19.5742C30.922 19.4277 30.9611 19.2643 30.9587 19.0989C30.9071 15.7798 30.5061 12.2789 29.7787 9.36489C29.4863 8.23945 29.1212 7.13421 28.6854 6.05616C28.2245 4.91122 27.6355 3.70016 26.9887 2.96029C26.9108 2.87149 26.8177 2.7973 26.7138 2.74122C25.1535 1.89389 22.5081 0.955622 20.768 0.767556C20.6813 0.758168 20.5938 0.760253 20.5076 0.773756C20.1181 0.848715 19.7528 1.01755 19.4433 1.26562C18.75 1.82369 18.1895 2.52891 17.8023 3.33022C17.0364 3.27014 16.2684 3.2405 15.5001 3.24136C14.6693 3.24136 13.9005 3.27236 13.1916 3.32816C12.8042 2.52759 12.2437 1.8231 11.5507 1.26562C11.2418 1.01785 10.8772 0.849034 10.4884 0.773756ZM22.7706 20.8452C23.0615 21.2931 23.3598 21.7362 23.6655 22.1741C24.4839 21.9881 25.5275 21.5541 26.5278 20.9548C27.65 20.2831 28.5407 19.5081 28.9706 18.853C28.9024 15.7406 28.518 12.5083 27.8546 9.84642C27.5844 8.80967 27.2475 7.79144 26.8461 6.79809C26.4327 5.76889 25.9884 4.89676 25.6019 4.39662C24.2586 3.70016 22.1403 2.96442 20.7597 2.76396C20.7182 2.78915 20.6782 2.81675 20.6399 2.84662C20.4686 2.98134 20.3121 3.13374 20.1728 3.30129C20.0913 3.3983 20.0134 3.49826 19.9393 3.60096C20.5696 3.71669 21.1317 3.85516 21.6298 4.00809C23.0434 4.44209 24.0623 5.04142 24.5603 5.70482C24.7182 5.9153 24.786 6.17986 24.7488 6.44031C24.7116 6.70076 24.5724 6.93577 24.3619 7.09362C24.2577 7.17178 24.1391 7.22866 24.0129 7.26099C23.8867 7.29332 23.7554 7.30048 23.6265 7.28205C23.366 7.24485 23.131 7.1057 22.9731 6.89522C22.8512 6.73402 22.3201 6.29589 21.047 5.90322C19.8173 5.52709 18.009 5.22536 15.5001 5.22536C12.9911 5.22536 11.1807 5.52709 9.95314 5.90529C8.68008 6.29796 8.14894 6.73196 8.02701 6.89522C7.94885 6.99944 7.85092 7.08724 7.73883 7.15361C7.62673 7.21999 7.50266 7.26363 7.3737 7.28205C7.11325 7.31926 6.84868 7.25148 6.63821 7.09362C6.53399 7.01546 6.44619 6.91753 6.37982 6.80544C6.31345 6.69334 6.2698 6.56927 6.25138 6.44031C6.21417 6.17986 6.28195 5.9153 6.43981 5.70482C6.93788 5.03936 7.95674 4.44416 9.37034 4.01016C9.86634 3.85516 10.4285 3.71876 11.0567 3.60302C10.9825 3.4992 10.9039 3.39853 10.8211 3.30129C10.6825 3.13385 10.5267 2.98146 10.3561 2.84662C10.3172 2.81669 10.2764 2.78909 10.2342 2.76396C8.85574 2.96442 6.73741 3.70016 5.39408 4.39662C5.00554 4.89882 4.56328 5.76889 4.14788 6.79809C3.70768 7.89342 3.34188 9.04456 3.14141 9.84642C2.47594 12.5083 2.09154 15.7406 2.02541 18.853C2.45528 19.5102 3.34394 20.2831 4.46614 20.9568C5.46848 21.5562 6.51008 21.9902 7.33054 22.1741C7.63931 21.7383 7.93768 21.2952 8.22541 20.8452C6.60308 20.2686 5.73301 19.4771 5.16674 18.6298C5.09455 18.5212 5.04445 18.3995 5.01929 18.2716C4.99414 18.1436 4.99443 18.012 5.02015 17.8842C5.04586 17.7564 5.0965 17.6349 5.16917 17.5267C5.24184 17.4184 5.33512 17.3255 5.44368 17.2534C5.55224 17.1812 5.67395 17.1311 5.80187 17.1059C5.9298 17.0808 6.06142 17.081 6.18923 17.1068C6.31704 17.1325 6.43853 17.1831 6.54678 17.2558C6.65502 17.3285 6.74788 17.4217 6.82008 17.5303C7.35741 18.3404 8.77101 19.7747 15.5001 19.7747C22.2312 19.7747 23.6427 18.3404 24.1801 17.5303C24.3259 17.311 24.5528 17.1587 24.8109 17.1068C25.069 17.0548 25.3372 17.1076 25.5565 17.2534C25.7757 17.3992 25.9281 17.6261 25.98 17.8842C26.0319 18.1423 25.9792 18.4105 25.8334 18.6298C25.2671 19.4771 24.395 20.2707 22.7706 20.8452ZM8.43208 11.4915C8.93634 10.95 9.62041 10.6442 10.3334 10.64C11.0464 10.6442 11.7305 10.95 12.2347 11.4915C12.7369 12.035 13.0201 12.7687 13.0201 13.5334C13.0201 14.298 12.7369 15.0317 12.2347 15.5752C11.7305 16.1167 11.0464 16.4226 10.3334 16.4267C9.97501 16.4229 9.62123 16.3454 9.29411 16.1989C8.967 16.0524 8.67356 15.8401 8.43208 15.5752C7.92286 15.0176 7.64246 14.2885 7.64674 13.5334C7.64674 12.7687 7.92988 12.035 8.43208 11.4915ZM20.6667 10.64C19.9537 10.6442 19.2697 10.95 18.7654 11.4915C18.2632 12.035 17.9801 12.7687 17.9801 13.5334C17.9801 14.298 18.2632 15.0317 18.7654 15.5752C19.2697 16.1167 19.9537 16.4226 20.6667 16.4267C21.3797 16.4226 22.0638 16.1167 22.5681 15.5752C23.0703 15.0317 23.3534 14.298 23.3534 13.5334C23.3534 12.7687 23.0703 12.035 22.5681 11.4915C22.3266 11.2266 22.0332 11.0143 21.706 10.8678C21.3789 10.7214 21.0251 10.6438 20.6667 10.64Z" fill="white"/>
</svg>
