<svg width="35" height="39" viewBox="0 0 35 39" fill="none" xmlns="http://www.w3.org/2000/svg">
<path d="M17.2092 0C15.8519 0.0257497 14.8771 0.274663 14.2304 0.720991L5.36683 5.19285L0.438597 11.5092C-0.599884 13.0199 0.137985 15.9382 3.38096 14.067L6.93366 9.65527C11.4429 5.99109 20.6434 7.67254 16.28 15.0284C14.1393 19.2856 15.1413 21.3628 17.9015 22.2383L19.1586 18.2557C21.3358 13.6379 25.3986 12.8053 25.2346 9.08019L35 9.7411L34.9089 0.120165L17.2092 0ZM12.2809 8.8742C10.6959 8.84845 9.13816 9.46644 8.00858 10.3591L4.44677 14.7709C5.42149 15.5004 6.40531 15.1056 7.38003 14.2215C8.52782 14.7709 9.42055 13.9211 10.1493 12.2217C10.4499 11.0629 10.8963 10.2475 12.2809 8.8742ZM5.02978 17.1141C4.99334 17.1141 4.94779 17.1141 4.91136 17.1227C4.61074 17.1828 4.25547 17.4832 4.01863 18.1698C3.77267 18.8565 3.71801 19.835 3.93664 20.8821C4.15527 21.9207 4.61074 22.8048 5.12087 23.3541C5.61279 23.8948 6.06826 24.0493 6.36887 23.9893C6.6786 23.9378 7.02476 23.6288 7.2616 22.9507C7.50756 22.264 7.57133 21.277 7.3527 20.2384C7.12496 19.1912 6.66949 18.3072 6.16847 17.7664C5.73121 17.2858 5.33039 17.1141 5.02978 17.1141ZM12.5542 26.281C11.8346 26.2896 10.9327 26.5041 10.0491 26.9075C9.03795 27.3796 8.24543 28.032 7.81728 28.6328C7.38914 29.225 7.3527 29.6714 7.48934 29.9374C7.62598 30.1949 8.0268 30.4438 8.792 30.4782C9.55719 30.5211 10.5866 30.3237 11.5977 29.8516C12.6089 29.3795 13.4014 28.7358 13.8295 28.135C14.2577 27.5427 14.2941 27.0878 14.1575 26.8303C14.0208 26.5642 13.62 26.3239 12.8548 26.2896C12.7546 26.281 12.6635 26.281 12.5542 26.281ZM3.66336 34.4865C3.23521 34.4951 2.8435 34.5552 2.49734 34.6496C1.72303 34.8642 1.27667 35.2504 1.13092 35.7054C0.976057 36.1688 1.13092 36.7182 1.65016 37.3104C2.17851 37.8941 3.06213 38.452 4.15527 38.761C5.2393 39.07 6.296 39.0614 7.07941 38.8382C7.86283 38.6236 8.3092 38.2374 8.45495 37.7825C8.6007 37.319 8.45495 36.7697 7.9266 36.1774C7.40736 35.5938 6.52374 35.0359 5.4306 34.7269C4.81115 34.5552 4.20993 34.478 3.66336 34.4865Z" fill="#2774E8"/>
</svg>
