<svg width="38" height="43" viewBox="0 0 38 43" fill="none" xmlns="http://www.w3.org/2000/svg">
<path d="M23 0V11.25C23 12.2446 23.3951 13.1984 24.0983 13.9017C24.8016 14.6049 25.7554 15 26.75 15H38V36.25C38 37.2446 37.6049 38.1984 36.9016 38.9016C36.1984 39.6049 35.2446 40 34.25 40H19.58C20.205 38.8175 20.5 37.53 20.5 36.25C20.5002 34.6905 19.9174 33.1873 18.866 32.0355C17.8146 30.8837 16.3706 30.1666 14.8175 30.025C15.8621 28.8688 16.5206 27.4159 16.7016 25.8682C16.8825 24.3205 16.5769 22.7549 15.8273 21.3889C15.0776 20.0228 13.921 18.9242 12.5183 18.2457C11.1156 17.5671 9.53635 17.3423 8 17.6025V3.75C8 2.75544 8.39509 1.80161 9.09835 1.09835C9.80161 0.395088 10.7554 0 11.75 0H23ZM25.5 0.625V11.25C25.5 11.5815 25.6317 11.8995 25.8661 12.1339C26.1005 12.3683 26.4185 12.5 26.75 12.5H37.375L25.5 0.625ZM14.25 25C14.25 26.3261 13.7232 27.5979 12.7855 28.5355C11.8479 29.4732 10.5761 30 9.25 30C7.92392 30 6.65215 29.4732 5.71447 28.5355C4.77678 27.5979 4.25 26.3261 4.25 25C4.25 23.6739 4.77678 22.4021 5.71447 21.4645C6.65215 20.5268 7.92392 20 9.25 20C10.5761 20 11.8479 20.5268 12.7855 21.4645C13.7232 22.4021 14.25 23.6739 14.25 25ZM18 36.25C18 39.3625 15.5 42.5 9.25 42.5C3 42.5 0.5 39.375 0.5 36.25C0.5 35.2554 0.895088 34.3016 1.59835 33.5984C2.30161 32.8951 3.25544 32.5 4.25 32.5H14.25C15.2446 32.5 16.1984 32.8951 16.9017 33.5984C17.6049 34.3016 18 35.2554 18 36.25Z" fill="#B7BBC0"/>
</svg>
