<svg width="8" height="8" viewBox="0 0 8 8" fill="none" xmlns="http://www.w3.org/2000/svg">
<path d="M0 6.33281V7C0 7.55156 1.34375 8 3 8C4.65625 8 6 7.55156 6 7V6.33281C5.35469 6.7875 4.175 7 3 7C1.825 7 0.645312 6.7875 0 6.33281ZM5 2C6.65625 2 8 1.55156 8 1C8 0.448438 6.65625 0 5 0C3.34375 0 2 0.448438 2 1C2 1.55156 3.34375 2 5 2ZM0 4.69375V5.5C0 6.05156 1.34375 6.5 3 6.5C4.65625 6.5 6 6.05156 6 5.5V4.69375C5.35469 5.225 4.17344 5.5 3 5.5C1.82656 5.5 0.645312 5.225 0 4.69375ZM6.5 4.86563C7.39531 4.69219 8 4.37031 8 4V3.33281C7.6375 3.58906 7.10469 3.76406 6.5 3.87188V4.86563ZM3 2.5C1.34375 2.5 0 3.05938 0 3.75C0 4.44063 1.34375 5 3 5C4.65625 5 6 4.44063 6 3.75C6 3.05938 4.65625 2.5 3 2.5ZM6.42656 3.37969C7.36406 3.21094 8 2.87969 8 2.5V1.83281C7.44531 2.225 6.49219 2.43594 5.48906 2.48594C5.95 2.70938 6.28906 3.00938 6.42656 3.37969Z" fill="#2774E8"/>
</svg>
