<svg width="8" height="8" viewBox="0 0 8 8" fill="none" xmlns="http://www.w3.org/2000/svg">
<path d="M4 0C6.20925 0 8 1.79075 8 4C8 6.20925 6.20925 8 4 8C1.79075 8 0 6.20925 0 4C0 1.79075 1.79075 0 4 0ZM4.838 1.39C4.777 1.36 4.716 1.39 4.701 1.45075C4.68575 1.466 4.68575 1.48125 4.68575 1.5115V1.724L4.68825 1.75C4.7013 1.80143 4.73291 1.84622 4.777 1.87575C5.9655 2.30075 6.575 3.62075 6.133 4.789C5.9045 5.4265 5.40175 5.91175 4.777 6.1395C4.716 6.16975 4.68575 6.21525 4.68575 6.29125V6.50375L4.687 6.52575C4.68938 6.54976 4.69941 6.57236 4.71561 6.59023C4.73182 6.6081 4.75334 6.62029 4.777 6.625C4.79225 6.625 4.82275 6.625 4.838 6.61C5.18089 6.50292 5.49922 6.32907 5.77464 6.09846C6.05007 5.86785 6.27716 5.58503 6.44284 5.26629C6.60852 4.94756 6.70951 4.5992 6.74 4.24127C6.77049 3.88334 6.72988 3.52292 6.6205 3.18075C6.3465 2.31575 5.676 1.663 4.838 1.39ZM3.223 1.375C3.20775 1.375 3.17725 1.375 3.162 1.39C2.81911 1.49708 2.50078 1.67093 2.22536 1.90154C1.94993 2.13215 1.72284 2.41497 1.55716 2.73371C1.39148 3.05244 1.29049 3.4008 1.26 3.75873C1.22951 4.11666 1.27012 4.47708 1.3795 4.81925C1.6535 5.66925 2.30875 6.32175 3.162 6.59475C3.223 6.625 3.284 6.59475 3.299 6.534C3.31425 6.519 3.31425 6.5035 3.31425 6.47325V6.26075L3.31175 6.24075C3.30125 6.1985 3.262 6.15025 3.223 6.12425C2.0345 5.69925 1.425 4.37925 1.867 3.211C2.0955 2.5735 2.59825 2.08825 3.223 1.8605C3.284 1.83025 3.31425 1.78475 3.31425 1.70875V1.49625L3.313 1.47425C3.31062 1.45024 3.30059 1.42764 3.28439 1.40977C3.26818 1.3919 3.24666 1.37971 3.223 1.375ZM4.10675 2.164H3.878L3.856 2.166C3.806 2.176 3.7695 2.219 3.756 2.2855V2.6345L3.70425 2.6425C3.27725 2.7185 3.00975 3.01325 3.00975 3.378C3.00975 3.8785 3.31425 4.07575 3.95425 4.15175C4.381 4.2275 4.518 4.31875 4.518 4.5615C4.518 4.804 4.30475 4.971 4.01525 4.971C3.619 4.971 3.482 4.80425 3.43625 4.5765C3.42125 4.516 3.37525 4.4855 3.3295 4.4855H3.0705L3.05075 4.48725C3.0261 4.49123 3.00372 4.50401 2.98777 4.52323C2.97182 4.54244 2.96338 4.56679 2.964 4.59175V4.60675L2.97225 4.65175C3.04475 5.00775 3.28875 5.2625 3.7715 5.33525V5.6995L3.7735 5.7215C3.7835 5.771 3.82675 5.8075 3.8935 5.82075H4.122L4.144 5.81875C4.194 5.80875 4.2305 5.76575 4.244 5.6995V5.335L4.29575 5.325C4.724 5.2345 5.00575 4.92475 5.00575 4.53075C5.00575 3.99975 4.68575 3.81775 4.04575 3.74175C3.5885 3.681 3.49725 3.55975 3.49725 3.34725C3.49725 3.13475 3.64975 2.99825 3.95425 2.99825C4.2285 2.99825 4.381 3.08925 4.457 3.317C4.46492 3.33902 4.4794 3.35809 4.49848 3.37163C4.51757 3.38518 4.54035 3.39255 4.56375 3.39275H4.8075L4.82725 3.39125C4.85199 3.38732 4.87446 3.37452 4.89046 3.35525C4.90647 3.33598 4.91492 3.31154 4.91425 3.2865V3.2715L4.905 3.22825C4.86746 3.07285 4.78188 2.93325 4.66043 2.8293C4.53897 2.72535 4.38783 2.66235 4.2285 2.64925V2.2855L4.2265 2.2635C4.2165 2.21375 4.1735 2.17725 4.10675 2.164Z" fill="#2774E8"/>
</svg>
