<svg width="102" height="19" viewBox="0 0 102 19" fill="none" xmlns="http://www.w3.org/2000/svg">
<path d="M2.6 18C1.992 18 1.52 17.832 1.184 17.496C0.864 17.16 0.704 16.696 0.704 16.104V2.928C0.704 2.304 0.864 1.832 1.184 1.512C1.504 1.192 1.968 1.032 2.576 1.032C3.168 1.032 3.624 1.192 3.944 1.512C4.264 1.832 4.424 2.304 4.424 2.928V14.856H10.856C11.368 14.856 11.76 14.992 12.032 15.264C12.32 15.536 12.464 15.92 12.464 16.416C12.464 16.928 12.32 17.32 12.032 17.592C11.76 17.864 11.368 18 10.856 18H2.6ZM19.6966 18.264C18.4326 18.264 17.3286 18.016 16.3846 17.52C15.4566 17.024 14.7366 16.312 14.2246 15.384C13.7126 14.456 13.4566 13.36 13.4566 12.096C13.4566 11.152 13.6006 10.304 13.8886 9.552C14.1766 8.8 14.5926 8.16 15.1366 7.632C15.6966 7.088 16.3606 6.68 17.1286 6.408C17.8966 6.12 18.7526 5.976 19.6966 5.976C20.9606 5.976 22.0566 6.224 22.9846 6.72C23.9286 7.216 24.6566 7.92 25.1686 8.832C25.6966 9.744 25.9606 10.832 25.9606 12.096C25.9606 13.056 25.8086 13.912 25.5046 14.664C25.2166 15.416 24.8006 16.064 24.2566 16.608C23.7126 17.152 23.0486 17.568 22.2646 17.856C21.4966 18.128 20.6406 18.264 19.6966 18.264ZM19.6966 15.552C20.2246 15.552 20.6806 15.424 21.0646 15.168C21.4486 14.912 21.7526 14.536 21.9766 14.04C22.2006 13.528 22.3126 12.88 22.3126 12.096C22.3126 10.928 22.0726 10.072 21.5926 9.528C21.1126 8.968 20.4806 8.688 19.6966 8.688C19.1846 8.688 18.7286 8.808 18.3286 9.048C17.9446 9.288 17.6406 9.664 17.4166 10.176C17.2086 10.672 17.1046 11.312 17.1046 12.096C17.1046 13.264 17.3446 14.136 17.8246 14.712C18.3046 15.272 18.9286 15.552 19.6966 15.552ZM32.1494 18.264C31.2854 18.264 30.5094 18.096 29.8214 17.76C29.1334 17.424 28.5974 16.968 28.2134 16.392C27.8294 15.816 27.6374 15.168 27.6374 14.448C27.6374 13.584 27.8614 12.904 28.3094 12.408C28.7574 11.896 29.4854 11.536 30.4934 11.328C31.5014 11.104 32.8374 10.992 34.5014 10.992H35.7734V12.864H34.5254C33.7094 12.864 33.0454 12.912 32.5334 13.008C32.0374 13.088 31.6774 13.232 31.4534 13.44C31.2454 13.648 31.1414 13.936 31.1414 14.304C31.1414 14.752 31.2934 15.12 31.5974 15.408C31.9174 15.696 32.3734 15.84 32.9654 15.84C33.4294 15.84 33.8374 15.736 34.1894 15.528C34.5574 15.304 34.8454 15.008 35.0534 14.64C35.2614 14.256 35.3654 13.824 35.3654 13.344V10.584C35.3654 9.88 35.2054 9.384 34.8854 9.096C34.5654 8.792 34.0214 8.64 33.2534 8.64C32.8214 8.64 32.3494 8.696 31.8374 8.808C31.3414 8.904 30.7894 9.072 30.1814 9.312C29.8294 9.472 29.5174 9.512 29.2454 9.432C28.9734 9.336 28.7654 9.176 28.6214 8.952C28.4774 8.712 28.4054 8.456 28.4054 8.184C28.4054 7.896 28.4854 7.624 28.6454 7.368C28.8054 7.096 29.0694 6.896 29.4374 6.768C30.1894 6.464 30.8934 6.256 31.5494 6.144C32.2214 6.032 32.8374 5.976 33.3974 5.976C34.6294 5.976 35.6374 6.16 36.4214 6.528C37.2214 6.88 37.8214 7.432 38.2214 8.184C38.6214 8.92 38.8214 9.872 38.8214 11.04V16.368C38.8214 16.96 38.6774 17.416 38.3894 17.736C38.1014 18.056 37.6854 18.216 37.1414 18.216C36.5974 18.216 36.1734 18.056 35.8694 17.736C35.5814 17.416 35.4374 16.96 35.4374 16.368V15.48L35.6054 15.624C35.5094 16.168 35.3014 16.64 34.9814 17.04C34.6774 17.424 34.2854 17.728 33.8054 17.952C33.3254 18.16 32.7734 18.264 32.1494 18.264ZM43.3488 18.216C42.7568 18.216 42.3008 18.056 41.9808 17.736C41.6768 17.416 41.5248 16.96 41.5248 16.368V7.848C41.5248 7.256 41.6768 6.808 41.9808 6.504C42.3008 6.184 42.7408 6.024 43.3008 6.024C43.8768 6.024 44.3168 6.184 44.6208 6.504C44.9248 6.808 45.0768 7.256 45.0768 7.848V9.216L44.8128 8.424C45.1808 7.64 45.7248 7.04 46.4448 6.624C47.1808 6.192 48.0128 5.976 48.9408 5.976C49.8848 5.976 50.6608 6.16 51.2688 6.528C51.8768 6.88 52.3328 7.424 52.6368 8.16C52.9408 8.88 53.0928 9.8 53.0928 10.92V16.368C53.0928 16.96 52.9328 17.416 52.6128 17.736C52.3088 18.056 51.8608 18.216 51.2688 18.216C50.6928 18.216 50.2448 18.056 49.9248 17.736C49.6208 17.416 49.4688 16.96 49.4688 16.368V11.088C49.4688 10.272 49.3168 9.688 49.0128 9.336C48.7248 8.968 48.2768 8.784 47.6688 8.784C46.9008 8.784 46.2848 9.024 45.8208 9.504C45.3728 9.984 45.1488 10.624 45.1488 11.424V16.368C45.1488 17.6 44.5488 18.216 43.3488 18.216Z" fill="black"/>
<path d="M58.0063 18C57.3983 18 56.9263 17.832 56.5903 17.496C56.2703 17.16 56.1103 16.696 56.1103 16.104V2.928C56.1103 2.304 56.2703 1.832 56.5903 1.512C56.9103 1.192 57.3743 1.032 57.9823 1.032C58.5743 1.032 59.0303 1.192 59.3503 1.512C59.6703 1.832 59.8303 2.304 59.8303 2.928V14.856H66.2623C66.7743 14.856 67.1663 14.992 67.4383 15.264C67.7263 15.536 67.8703 15.92 67.8703 16.416C67.8703 16.928 67.7263 17.32 67.4383 17.592C67.1663 17.864 66.7743 18 66.2623 18H58.0063ZM71.3801 18.192C70.7881 18.192 70.3321 18.024 70.0121 17.688C69.7081 17.336 69.5561 16.848 69.5561 16.224V8.016C69.5561 7.376 69.7081 6.888 70.0121 6.552C70.3321 6.2 70.7881 6.024 71.3801 6.024C71.9561 6.024 72.3961 6.2 72.7001 6.552C73.0201 6.888 73.1801 7.376 73.1801 8.016V16.224C73.1801 16.848 73.0281 17.336 72.7241 17.688C72.4201 18.024 71.9721 18.192 71.3801 18.192ZM71.3801 4.056C70.7081 4.056 70.1881 3.904 69.8201 3.6C69.4681 3.28 69.2921 2.832 69.2921 2.256C69.2921 1.664 69.4681 1.216 69.8201 0.912C70.1881 0.591999 70.7081 0.431999 71.3801 0.431999C72.0521 0.431999 72.5641 0.591999 72.9161 0.912C73.2681 1.216 73.4441 1.664 73.4441 2.256C73.4441 2.832 73.2681 3.28 72.9161 3.6C72.5641 3.904 72.0521 4.056 71.3801 4.056ZM77.8019 18.216C77.2099 18.216 76.7539 18.056 76.4339 17.736C76.1299 17.416 75.9779 16.96 75.9779 16.368V7.848C75.9779 7.256 76.1299 6.808 76.4339 6.504C76.7539 6.184 77.1939 6.024 77.7539 6.024C78.3299 6.024 78.7699 6.184 79.0739 6.504C79.3779 6.808 79.5299 7.256 79.5299 7.848V9.216L79.2659 8.424C79.6339 7.64 80.1779 7.04 80.8979 6.624C81.6339 6.192 82.4659 5.976 83.3939 5.976C84.3379 5.976 85.1139 6.16 85.7219 6.528C86.3299 6.88 86.7859 7.424 87.0899 8.16C87.3939 8.88 87.5459 9.8 87.5459 10.92V16.368C87.5459 16.96 87.3859 17.416 87.0659 17.736C86.7619 18.056 86.3139 18.216 85.7219 18.216C85.1459 18.216 84.6979 18.056 84.3779 17.736C84.0739 17.416 83.9219 16.96 83.9219 16.368V11.088C83.9219 10.272 83.7699 9.688 83.4659 9.336C83.1779 8.968 82.7299 8.784 82.1219 8.784C81.3539 8.784 80.7379 9.024 80.2739 9.504C79.8259 9.984 79.6019 10.624 79.6019 11.424V16.368C79.6019 17.6 79.0019 18.216 77.8019 18.216ZM92.0754 18.216C91.4834 18.216 91.0274 18.056 90.7074 17.736C90.4034 17.416 90.2514 16.96 90.2514 16.368V2.712C90.2514 2.104 90.4034 1.648 90.7074 1.344C91.0274 1.024 91.4834 0.863999 92.0754 0.863999C92.6514 0.863999 93.0914 1.024 93.3954 1.344C93.7154 1.648 93.8754 2.104 93.8754 2.712V11.088H93.9234L97.4034 7.224C97.7554 6.824 98.0754 6.528 98.3634 6.336C98.6674 6.128 99.0674 6.024 99.5634 6.024C100.059 6.024 100.435 6.152 100.691 6.408C100.963 6.664 101.099 6.976 101.099 7.344C101.115 7.696 100.963 8.056 100.643 8.424L96.9714 12.528V11.16L101.051 15.864C101.355 16.232 101.483 16.6 101.435 16.968C101.403 17.336 101.243 17.64 100.955 17.88C100.667 18.104 100.299 18.216 99.8514 18.216C99.3074 18.216 98.8674 18.112 98.5314 17.904C98.2114 17.696 97.8834 17.376 97.5474 16.944L93.9234 12.912H93.8754V16.368C93.8754 17.6 93.2754 18.216 92.0754 18.216Z" fill="#2774E8"/>
</svg>
