<svg width="144" height="114" viewBox="0 0 144 114" fill="none" xmlns="http://www.w3.org/2000/svg">
<path d="M10.8038 2.68937C11.5069 1.14054 13.0538 0.25187 14.6241 0.480386L71.9991 8.24992L129.374 0.480386C130.944 0.277261 132.491 1.16593 133.194 2.68937L142.968 23.8652C145.077 28.4101 142.827 33.9198 138.327 35.3163L100.03 47.1737C96.7725 48.1894 93.2803 46.6913 91.546 43.5429L71.9991 8.24992L52.4522 43.5429C50.7179 46.6913 47.2257 48.1894 43.9678 47.1737L5.69441 35.3163C1.17097 33.9198 -1.05559 28.4101 1.05379 23.8652L10.8038 2.68937ZM72.2569 24.4999L85.1241 47.7069C88.6163 54.0038 95.5772 56.9999 102.116 54.9687L131.999 45.7265V88.1288C131.999 93.7148 128.483 98.5898 123.468 99.9609L75.6319 112.91C73.2413 113.57 70.7335 113.57 68.3663 112.91L20.5304 99.9609C15.5147 98.5644 11.9991 93.6894 11.9991 88.1034V45.7011L41.9054 54.9687C48.421 56.9999 55.4054 54.0038 58.8975 47.7069L71.7413 24.4999H72.2569Z" fill="#E9EEF6"/>
</svg>
