<svg width="68" height="13" viewBox="0 0 68 13" fill="none" xmlns="http://www.w3.org/2000/svg">
<path d="M1.4 12C0.994667 12 0.68 11.888 0.456 11.664C0.242667 11.44 0.136 11.1307 0.136 10.736V1.952C0.136 1.536 0.242667 1.22133 0.456 1.008C0.669333 0.794666 0.978667 0.688 1.384 0.688C1.77867 0.688 2.08267 0.794666 2.296 1.008C2.50933 1.22133 2.616 1.536 2.616 1.952V9.904H6.904C7.24533 9.904 7.50667 9.99467 7.688 10.176C7.88 10.3573 7.976 10.6133 7.976 10.944C7.976 11.2853 7.88 11.5467 7.688 11.728C7.50667 11.9093 7.24533 12 6.904 12H1.4ZM12.7977 12.176C11.9551 12.176 11.2191 12.0107 10.5898 11.68C9.97108 11.3493 9.49108 10.8747 9.14975 10.256C8.80842 9.63733 8.63775 8.90667 8.63775 8.064C8.63775 7.43467 8.73375 6.86933 8.92575 6.368C9.11775 5.86667 9.39508 5.44 9.75775 5.088C10.1311 4.72533 10.5738 4.45333 11.0858 4.272C11.5978 4.08 12.1684 3.984 12.7977 3.984C13.6404 3.984 14.3711 4.14933 14.9898 4.48C15.6191 4.81067 16.1044 5.28 16.4458 5.888C16.7978 6.496 16.9738 7.22133 16.9738 8.064C16.9738 8.704 16.8724 9.27467 16.6698 9.776C16.4778 10.2773 16.2004 10.7093 15.8378 11.072C15.4751 11.4347 15.0324 11.712 14.5098 11.904C13.9978 12.0853 13.4271 12.176 12.7977 12.176ZM12.7977 10.368C13.1498 10.368 13.4538 10.2827 13.7098 10.112C13.9658 9.94133 14.1684 9.69067 14.3178 9.36C14.4671 9.01867 14.5418 8.58667 14.5418 8.064C14.5418 7.28533 14.3818 6.71467 14.0618 6.352C13.7418 5.97867 13.3204 5.792 12.7977 5.792C12.4564 5.792 12.1524 5.872 11.8858 6.032C11.6298 6.192 11.4271 6.44267 11.2778 6.784C11.1391 7.11467 11.0698 7.54133 11.0698 8.064C11.0698 8.84267 11.2298 9.424 11.5498 9.808C11.8698 10.1813 12.2858 10.368 12.7977 10.368ZM21.0996 12.176C20.5236 12.176 20.0063 12.064 19.5476 11.84C19.089 11.616 18.7316 11.312 18.4756 10.928C18.2196 10.544 18.0916 10.112 18.0916 9.632C18.0916 9.056 18.241 8.60267 18.5396 8.272C18.8383 7.93067 19.3236 7.69067 19.9956 7.552C20.6676 7.40267 21.5583 7.328 22.6676 7.328H23.5156V8.576H22.6836C22.1396 8.576 21.697 8.608 21.3556 8.672C21.025 8.72533 20.785 8.82133 20.6356 8.96C20.497 9.09867 20.4276 9.29067 20.4276 9.536C20.4276 9.83467 20.529 10.08 20.7316 10.272C20.945 10.464 21.249 10.56 21.6436 10.56C21.953 10.56 22.225 10.4907 22.4596 10.352C22.705 10.2027 22.897 10.0053 23.0356 9.76C23.1743 9.504 23.2436 9.216 23.2436 8.896V7.056C23.2436 6.58667 23.137 6.256 22.9236 6.064C22.7103 5.86133 22.3476 5.76 21.8356 5.76C21.5476 5.76 21.233 5.79733 20.8916 5.872C20.561 5.936 20.193 6.048 19.7876 6.208C19.553 6.31467 19.345 6.34133 19.1636 6.288C18.9823 6.224 18.8436 6.11733 18.7476 5.968C18.6516 5.808 18.6036 5.63733 18.6036 5.456C18.6036 5.264 18.657 5.08267 18.7636 4.912C18.8703 4.73067 19.0463 4.59733 19.2916 4.512C19.793 4.30933 20.2623 4.17067 20.6996 4.096C21.1476 4.02133 21.5583 3.984 21.9316 3.984C22.753 3.984 23.425 4.10667 23.9476 4.352C24.481 4.58667 24.881 4.95467 25.1476 5.456C25.4143 5.94667 25.5476 6.58133 25.5476 7.36V10.912C25.5476 11.3067 25.4516 11.6107 25.2596 11.824C25.0676 12.0373 24.7903 12.144 24.4276 12.144C24.065 12.144 23.7823 12.0373 23.5796 11.824C23.3876 11.6107 23.2916 11.3067 23.2916 10.912V10.32L23.4036 10.416C23.3396 10.7787 23.201 11.0933 22.9876 11.36C22.785 11.616 22.5236 11.8187 22.2036 11.968C21.8836 12.1067 21.5156 12.176 21.0996 12.176ZM28.5659 12.144C28.1712 12.144 27.8672 12.0373 27.6539 11.824C27.4512 11.6107 27.3499 11.3067 27.3499 10.912V5.232C27.3499 4.83733 27.4512 4.53867 27.6539 4.336C27.8672 4.12267 28.1605 4.016 28.5339 4.016C28.9179 4.016 29.2112 4.12267 29.4139 4.336C29.6165 4.53867 29.7179 4.83733 29.7179 5.232V6.144L29.5419 5.616C29.7872 5.09333 30.1499 4.69333 30.6299 4.416C31.1205 4.128 31.6752 3.984 32.2939 3.984C32.9232 3.984 33.4405 4.10667 33.8459 4.352C34.2512 4.58667 34.5552 4.94933 34.7579 5.44C34.9605 5.92 35.0619 6.53333 35.0619 7.28V10.912C35.0619 11.3067 34.9552 11.6107 34.7419 11.824C34.5392 12.0373 34.2405 12.144 33.8459 12.144C33.4619 12.144 33.1632 12.0373 32.9499 11.824C32.7472 11.6107 32.6459 11.3067 32.6459 10.912V7.392C32.6459 6.848 32.5445 6.45867 32.3419 6.224C32.1499 5.97867 31.8512 5.856 31.4459 5.856C30.9339 5.856 30.5232 6.016 30.2139 6.336C29.9152 6.656 29.7659 7.08267 29.7659 7.616V10.912C29.7659 11.7333 29.3659 12.144 28.5659 12.144Z" fill="black"/>
<path d="M38.3375 12C37.9322 12 37.6175 11.888 37.3935 11.664C37.1802 11.44 37.0735 11.1307 37.0735 10.736V1.952C37.0735 1.536 37.1802 1.22133 37.3935 1.008C37.6068 0.794666 37.9162 0.688 38.3215 0.688C38.7162 0.688 39.0202 0.794666 39.2335 1.008C39.4468 1.22133 39.5535 1.536 39.5535 1.952V9.904H43.8415C44.1828 9.904 44.4442 9.99467 44.6255 10.176C44.8175 10.3573 44.9135 10.6133 44.9135 10.944C44.9135 11.2853 44.8175 11.5467 44.6255 11.728C44.4442 11.9093 44.1828 12 43.8415 12H38.3375ZM47.2534 12.128C46.8587 12.128 46.5547 12.016 46.3414 11.792C46.1387 11.5573 46.0374 11.232 46.0374 10.816V5.344C46.0374 4.91733 46.1387 4.592 46.3414 4.368C46.5547 4.13333 46.8587 4.016 47.2534 4.016C47.6374 4.016 47.9307 4.13333 48.1334 4.368C48.3467 4.592 48.4534 4.91733 48.4534 5.344V10.816C48.4534 11.232 48.352 11.5573 48.1494 11.792C47.9467 12.016 47.648 12.128 47.2534 12.128ZM47.2534 2.704C46.8054 2.704 46.4587 2.60267 46.2134 2.4C45.9787 2.18667 45.8614 1.888 45.8614 1.504C45.8614 1.10933 45.9787 0.810666 46.2134 0.608C46.4587 0.394666 46.8054 0.287999 47.2534 0.287999C47.7014 0.287999 48.0427 0.394666 48.2774 0.608C48.512 0.810666 48.6294 1.10933 48.6294 1.504C48.6294 1.888 48.512 2.18667 48.2774 2.4C48.0427 2.60267 47.7014 2.704 47.2534 2.704ZM51.5346 12.144C51.14 12.144 50.836 12.0373 50.6226 11.824C50.42 11.6107 50.3186 11.3067 50.3186 10.912V5.232C50.3186 4.83733 50.42 4.53867 50.6226 4.336C50.836 4.12267 51.1293 4.016 51.5026 4.016C51.8866 4.016 52.18 4.12267 52.3826 4.336C52.5853 4.53867 52.6866 4.83733 52.6866 5.232V6.144L52.5106 5.616C52.756 5.09333 53.1186 4.69333 53.5986 4.416C54.0893 4.128 54.644 3.984 55.2626 3.984C55.892 3.984 56.4093 4.10667 56.8146 4.352C57.22 4.58667 57.524 4.94933 57.7266 5.44C57.9293 5.92 58.0306 6.53333 58.0306 7.28V10.912C58.0306 11.3067 57.924 11.6107 57.7106 11.824C57.508 12.0373 57.2093 12.144 56.8146 12.144C56.4306 12.144 56.132 12.0373 55.9186 11.824C55.716 11.6107 55.6146 11.3067 55.6146 10.912V7.392C55.6146 6.848 55.5133 6.45867 55.3106 6.224C55.1186 5.97867 54.82 5.856 54.4146 5.856C53.9026 5.856 53.492 6.016 53.1826 6.336C52.884 6.656 52.7346 7.08267 52.7346 7.616V10.912C52.7346 11.7333 52.3346 12.144 51.5346 12.144ZM61.0503 12.144C60.6556 12.144 60.3516 12.0373 60.1383 11.824C59.9356 11.6107 59.8343 11.3067 59.8343 10.912V1.808C59.8343 1.40267 59.9356 1.09867 60.1383 0.896C60.3516 0.682666 60.6556 0.575999 61.0503 0.575999C61.4343 0.575999 61.7276 0.682666 61.9303 0.896C62.1436 1.09867 62.2503 1.40267 62.2503 1.808V7.392H62.2823L64.6023 4.816C64.8369 4.54933 65.0503 4.352 65.2423 4.224C65.4449 4.08533 65.7116 4.016 66.0423 4.016C66.3729 4.016 66.6236 4.10133 66.7943 4.272C66.9756 4.44267 67.0663 4.65067 67.0663 4.896C67.0769 5.13067 66.9756 5.37067 66.7623 5.616L64.3143 8.352V7.44L67.0343 10.576C67.2369 10.8213 67.3223 11.0667 67.2903 11.312C67.2689 11.5573 67.1623 11.76 66.9703 11.92C66.7783 12.0693 66.5329 12.144 66.2343 12.144C65.8716 12.144 65.5783 12.0747 65.3543 11.936C65.1409 11.7973 64.9223 11.584 64.6983 11.296L62.2823 8.608H62.2503V10.912C62.2503 11.7333 61.8503 12.144 61.0503 12.144Z" fill="#2774E8"/>
</svg>
