<svg width="12" height="12" viewBox="0 0 12 12" fill="none" xmlns="http://www.w3.org/2000/svg">
<g clip-path="url(#clip0_684_5764)">
<path d="M6 0C9.31387 0 12 2.68613 12 6C12 9.31387 9.31387 12 6 12C2.68613 12 0 9.31387 0 6C0 2.68613 2.68613 0 6 0ZM7.257 2.085C7.1655 2.04 7.074 2.085 7.0515 2.17612C7.02863 2.199 7.02863 2.22188 7.02863 2.26725V2.586L7.03238 2.625C7.05195 2.70215 7.09937 2.76933 7.1655 2.81362C8.94825 3.45112 9.8625 5.43113 9.1995 7.1835C8.85675 8.13975 8.10262 8.86763 7.1655 9.20925C7.074 9.25463 7.02863 9.32288 7.02863 9.43688V9.75562L7.0305 9.78863C7.03407 9.82464 7.04911 9.85854 7.07342 9.88535C7.09773 9.91216 7.13001 9.93044 7.1655 9.9375C7.18837 9.9375 7.23412 9.9375 7.257 9.915C7.77134 9.75438 8.24883 9.4936 8.66197 9.14769C9.07511 8.80177 9.41574 8.37754 9.66426 7.89944C9.91277 7.42134 10.0643 6.89879 10.11 6.3619C10.1557 5.82501 10.0948 5.28438 9.93075 4.77112C9.51975 3.47362 8.514 2.4945 7.257 2.085ZM4.8345 2.0625C4.81163 2.0625 4.76587 2.0625 4.743 2.085C4.22866 2.24562 3.75117 2.5064 3.33803 2.85231C2.92489 3.19823 2.58426 3.62246 2.33574 4.10056C2.08723 4.57866 1.93574 5.10121 1.89 5.6381C1.84427 6.17499 1.90519 6.71562 2.06925 7.22888C2.48025 8.50388 3.46312 9.48262 4.743 9.89212C4.8345 9.9375 4.926 9.89212 4.9485 9.801C4.97138 9.7785 4.97137 9.75525 4.97137 9.70987V9.39112L4.96762 9.36112C4.95187 9.29775 4.893 9.22537 4.8345 9.18637C3.05175 8.54887 2.1375 6.56887 2.8005 4.8165C3.14325 3.86025 3.89738 3.13237 4.8345 2.79075C4.926 2.74537 4.97137 2.67713 4.97137 2.56313V2.24438L4.9695 2.21137C4.96593 2.17537 4.95089 2.14146 4.92658 2.11465C4.90227 2.08784 4.86999 2.06956 4.8345 2.0625ZM6.16013 3.246H5.817L5.784 3.249C5.709 3.264 5.65425 3.3285 5.634 3.42825V3.95175L5.55638 3.96375C4.91588 4.07775 4.51462 4.51988 4.51462 5.067C4.51462 5.81775 4.97138 6.11363 5.93138 6.22763C6.5715 6.34125 6.777 6.47813 6.777 6.84225C6.777 7.206 6.45713 7.4565 6.02288 7.4565C5.4285 7.4565 5.223 7.20637 5.15437 6.86475C5.13187 6.774 5.06287 6.72825 4.99425 6.72825H4.60575L4.57613 6.73087C4.53915 6.73685 4.50559 6.75602 4.48166 6.78484C4.45774 6.81366 4.44507 6.85018 4.446 6.88763V6.91013L4.45837 6.97763C4.56712 7.51163 4.93313 7.89375 5.65725 8.00287V8.54925L5.66025 8.58225C5.67525 8.6565 5.74013 8.71125 5.84025 8.73113H6.183L6.216 8.72812C6.291 8.71312 6.34575 8.64863 6.366 8.54925V8.0025L6.44363 7.9875C7.086 7.85175 7.50863 7.38712 7.50863 6.79612C7.50863 5.99962 7.02863 5.72662 6.06863 5.61263C5.38275 5.5215 5.24588 5.33962 5.24588 5.02087C5.24588 4.70212 5.47463 4.49738 5.93138 4.49738C6.34275 4.49738 6.5715 4.63387 6.6855 4.9755C6.69738 5.00853 6.7191 5.03713 6.74772 5.05745C6.77635 5.07777 6.81052 5.08882 6.84562 5.08913H7.21125L7.24088 5.08687C7.27799 5.08097 7.31169 5.06178 7.3357 5.03287C7.35971 5.00397 7.37239 4.96731 7.37137 4.92975V4.90725L7.3575 4.84238C7.3012 4.60928 7.17282 4.39988 6.99064 4.24395C6.80846 4.08802 6.58174 3.99352 6.34275 3.97388V3.42825L6.33975 3.39525C6.32475 3.32062 6.26025 3.26588 6.16013 3.246Z" fill="#2774E8"/>
</g>
<defs>
<clipPath id="clip0_684_5764">
<rect width="12" height="12" fill="white"/>
</clipPath>
</defs>
</svg>
