<svg width="30" height="30" viewBox="0 0 30 30" fill="none" xmlns="http://www.w3.org/2000/svg">
<path d="M9.26562 15C7.57812 15.0558 6.19792 15.7701 5.125 17.1429H3.03125C2.17708 17.1429 1.45833 16.9169 0.875 16.4648C0.291667 16.0128 0 15.3516 0 14.481C0 10.5413 0.645833 8.57143 1.9375 8.57143C2 8.57143 2.22656 8.68862 2.61719 8.92299C3.00781 9.15737 3.51562 9.39453 4.14062 9.63449C4.76562 9.87444 5.38542 9.99442 6 9.99442C6.69792 9.99442 7.39062 9.86607 8.07812 9.60938C8.02604 10.0223 8 10.3906 8 10.7143C8 12.2656 8.42188 13.6942 9.26562 15ZM26 25.6641C26 27.0033 25.6198 28.0608 24.8594 28.8365C24.099 29.6122 23.0885 30 21.8281 30H8.17188C6.91146 30 5.90104 29.6122 5.14062 28.8365C4.38021 28.0608 4 27.0033 4 25.6641C4 25.0725 4.01823 24.495 4.05469 23.9314C4.09115 23.3677 4.16406 22.7595 4.27344 22.1066C4.38281 21.4537 4.52083 20.8482 4.6875 20.2902C4.85417 19.7321 5.07812 19.1881 5.35938 18.6579C5.64062 18.1278 5.96354 17.6758 6.32812 17.3019C6.69271 16.928 7.13802 16.6295 7.66406 16.4062C8.1901 16.183 8.77083 16.0714 9.40625 16.0714C9.51042 16.0714 9.73438 16.1914 10.0781 16.4314C10.4219 16.6713 10.8021 16.9392 11.2188 17.2349C11.6354 17.5307 12.1927 17.7985 12.8906 18.0385C13.5885 18.2785 14.2917 18.3984 15 18.3984C15.7083 18.3984 16.4115 18.2785 17.1094 18.0385C17.8073 17.7985 18.3646 17.5307 18.7812 17.2349C19.1979 16.9392 19.5781 16.6713 19.9219 16.4314C20.2656 16.1914 20.4896 16.0714 20.5938 16.0714C21.2292 16.0714 21.8099 16.183 22.3359 16.4062C22.862 16.6295 23.3073 16.928 23.6719 17.3019C24.0365 17.6758 24.3594 18.1278 24.6406 18.6579C24.9219 19.1881 25.1458 19.7321 25.3125 20.2902C25.4792 20.8482 25.6172 21.4537 25.7266 22.1066C25.8359 22.7595 25.9089 23.3677 25.9453 23.9314C25.9818 24.495 26 25.0725 26 25.6641ZM10 4.28571C10 5.46875 9.60938 6.47879 8.82812 7.31585C8.04688 8.1529 7.10417 8.57143 6 8.57143C4.89583 8.57143 3.95312 8.1529 3.17188 7.31585C2.39062 6.47879 2 5.46875 2 4.28571C2 3.10268 2.39062 2.09263 3.17188 1.25558C3.95312 0.418527 4.89583 0 6 0C7.10417 0 8.04688 0.418527 8.82812 1.25558C9.60938 2.09263 10 3.10268 10 4.28571ZM21 10.7143C21 12.4888 20.4141 14.0039 19.2422 15.2595C18.0703 16.5151 16.6562 17.1429 15 17.1429C13.3438 17.1429 11.9297 16.5151 10.7578 15.2595C9.58594 14.0039 9 12.4888 9 10.7143C9 8.93973 9.58594 7.42466 10.7578 6.16908C11.9297 4.9135 13.3438 4.28571 15 4.28571C16.6562 4.28571 18.0703 4.9135 19.2422 6.16908C20.4141 7.42466 21 8.93973 21 10.7143ZM30 14.481C30 15.3516 29.7083 16.0128 29.125 16.4648C28.5417 16.9169 27.8229 17.1429 26.9688 17.1429H24.875C23.8021 15.7701 22.4219 15.0558 20.7344 15C21.5781 13.6942 22 12.2656 22 10.7143C22 10.3906 21.974 10.0223 21.9219 9.60938C22.6094 9.86607 23.3021 9.99442 24 9.99442C24.6146 9.99442 25.2344 9.87444 25.8594 9.63449C26.4844 9.39453 26.9922 9.15737 27.3828 8.92299C27.7734 8.68862 28 8.57143 28.0625 8.57143C29.3542 8.57143 30 10.5413 30 14.481ZM28 4.28571C28 5.46875 27.6094 6.47879 26.8281 7.31585C26.0469 8.1529 25.1042 8.57143 24 8.57143C22.8958 8.57143 21.9531 8.1529 21.1719 7.31585C20.3906 6.47879 20 5.46875 20 4.28571C20 3.10268 20.3906 2.09263 21.1719 1.25558C21.9531 0.418527 22.8958 0 24 0C25.1042 0 26.0469 0.418527 26.8281 1.25558C27.6094 2.09263 28 3.10268 28 4.28571Z" fill="#2774E8"/>
</svg>
