<svg width="15" height="13" viewBox="0 0 15 13" fill="none" xmlns="http://www.w3.org/2000/svg">
<path d="M4.63281 6.5C3.78906 6.52418 3.09896 6.8337 2.5625 7.42857H1.51562C1.08854 7.42857 0.729167 7.33064 0.4375 7.13477C0.145833 6.93889 0 6.65234 0 6.27511C0 4.56789 0.322917 3.71429 0.96875 3.71429C1 3.71429 1.11328 3.76507 1.30859 3.86663C1.50391 3.96819 1.75781 4.07096 2.07031 4.17494C2.38281 4.27892 2.69271 4.33091 3 4.33091C3.34896 4.33091 3.69531 4.2753 4.03906 4.16406C4.01302 4.34301 4 4.5026 4 4.64286C4 5.3151 4.21094 5.93415 4.63281 6.5ZM13 11.1211C13 11.7015 12.8099 12.1597 12.4297 12.4958C12.0495 12.8319 11.5443 13 10.9141 13H4.08594C3.45573 13 2.95052 12.8319 2.57031 12.4958C2.1901 12.1597 2 11.7015 2 11.1211C2 10.8648 2.00911 10.6145 2.02734 10.3703C2.04557 10.126 2.08203 9.86244 2.13672 9.57952C2.19141 9.2966 2.26042 9.03423 2.34375 8.79241C2.42708 8.5506 2.53906 8.31483 2.67969 8.0851C2.82031 7.85538 2.98177 7.6595 3.16406 7.49749C3.34635 7.33547 3.56901 7.2061 3.83203 7.10938C4.09505 7.01265 4.38542 6.96429 4.70312 6.96429C4.75521 6.96429 4.86719 7.01628 5.03906 7.12026C5.21094 7.22424 5.40104 7.34031 5.60938 7.46847C5.81771 7.59663 6.09635 7.7127 6.44531 7.81669C6.79427 7.92067 7.14583 7.97266 7.5 7.97266C7.85417 7.97266 8.20573 7.92067 8.55469 7.81669C8.90365 7.7127 9.18229 7.59663 9.39062 7.46847C9.59896 7.34031 9.78906 7.22424 9.96094 7.12026C10.1328 7.01628 10.2448 6.96429 10.2969 6.96429C10.6146 6.96429 10.9049 7.01265 11.168 7.10938C11.431 7.2061 11.6536 7.33547 11.8359 7.49749C12.0182 7.6595 12.1797 7.85538 12.3203 8.0851C12.4609 8.31483 12.5729 8.5506 12.6562 8.79241C12.7396 9.03423 12.8086 9.2966 12.8633 9.57952C12.918 9.86244 12.9544 10.126 12.9727 10.3703C12.9909 10.6145 13 10.8648 13 11.1211ZM5 1.85714C5 2.36979 4.80469 2.80748 4.41406 3.1702C4.02344 3.53292 3.55208 3.71429 3 3.71429C2.44792 3.71429 1.97656 3.53292 1.58594 3.1702C1.19531 2.80748 1 2.36979 1 1.85714C1 1.34449 1.19531 0.906808 1.58594 0.544085C1.97656 0.181362 2.44792 0 3 0C3.55208 0 4.02344 0.181362 4.41406 0.544085C4.80469 0.906808 5 1.34449 5 1.85714ZM10.5 4.64286C10.5 5.41183 10.207 6.06836 9.62109 6.61244C9.03516 7.15653 8.32812 7.42857 7.5 7.42857C6.67188 7.42857 5.96484 7.15653 5.37891 6.61244C4.79297 6.06836 4.5 5.41183 4.5 4.64286C4.5 3.87388 4.79297 3.21735 5.37891 2.67327C5.96484 2.12919 6.67188 1.85714 7.5 1.85714C8.32812 1.85714 9.03516 2.12919 9.62109 2.67327C10.207 3.21735 10.5 3.87388 10.5 4.64286ZM15 6.27511C15 6.65234 14.8542 6.93889 14.5625 7.13477C14.2708 7.33064 13.9115 7.42857 13.4844 7.42857H12.4375C11.901 6.8337 11.2109 6.52418 10.3672 6.5C10.7891 5.93415 11 5.3151 11 4.64286C11 4.5026 10.987 4.34301 10.9609 4.16406C11.3047 4.2753 11.651 4.33091 12 4.33091C12.3073 4.33091 12.6172 4.27892 12.9297 4.17494C13.2422 4.07096 13.4961 3.96819 13.6914 3.86663C13.8867 3.76507 14 3.71429 14.0312 3.71429C14.6771 3.71429 15 4.56789 15 6.27511ZM14 1.85714C14 2.36979 13.8047 2.80748 13.4141 3.1702C13.0234 3.53292 12.5521 3.71429 12 3.71429C11.4479 3.71429 10.9766 3.53292 10.5859 3.1702C10.1953 2.80748 10 2.36979 10 1.85714C10 1.34449 10.1953 0.906808 10.5859 0.544085C10.9766 0.181362 11.4479 0 12 0C12.5521 0 13.0234 0.181362 13.4141 0.544085C13.8047 0.906808 14 1.34449 14 1.85714Z" fill="#2774E8"/>
</svg>
