<svg width="43" height="39" viewBox="0 0 43 39" fill="none" xmlns="http://www.w3.org/2000/svg">
<path d="M21.1427 0C19.4751 0.0257497 18.2776 0.274663 17.483 0.720991L6.59353 5.19285L0.538848 11.5092C-0.737001 13.0199 0.169524 15.9382 4.15375 14.067L8.5185 9.65527C14.0584 5.99109 25.3619 7.67254 20.0011 15.0284C17.3711 19.2856 18.6022 21.3628 21.9933 22.2383L23.5377 18.2557C26.2125 13.6379 31.204 12.8053 31.0025 9.08019L43 9.7411L42.8881 0.120165L21.1427 0ZM15.088 8.8742C13.1407 8.84845 11.2269 9.46644 9.83911 10.3591L5.46318 14.7709C6.66069 15.5004 7.86938 15.1056 9.06689 14.2215C10.477 14.7709 11.5738 13.9211 12.4692 12.2217C12.8385 11.0629 13.3869 10.2475 15.088 8.8742ZM6.17944 17.1141C6.13468 17.1141 6.07872 17.1141 6.03395 17.1227C5.66463 17.1828 5.22815 17.4832 4.93717 18.1698C4.635 18.8565 4.56784 19.835 4.83644 20.8821C5.10504 21.9207 5.66463 22.8048 6.29136 23.3541C6.89571 23.8948 7.45529 24.0493 7.82462 23.9893C8.20513 23.9378 8.63042 23.6288 8.9214 22.9507C9.22357 22.264 9.30192 21.277 9.03332 20.2384C8.75352 19.1912 8.19394 18.3072 7.5784 17.7664C7.0412 17.2858 6.54877 17.1141 6.17944 17.1141ZM15.4238 26.281C14.5396 26.2896 13.4316 26.5041 12.346 26.9075C11.1038 27.3796 10.1301 28.032 9.60409 28.6328C9.07808 29.225 9.03332 29.6714 9.20119 29.9374C9.36907 30.1949 9.8615 30.4438 10.8016 30.4782C11.7417 30.5211 13.0064 30.3237 14.2486 29.8516C15.4909 29.3795 16.4646 28.7358 16.9906 28.135C17.5166 27.5427 17.5614 27.0878 17.3935 26.8303C17.2256 26.5642 16.7332 26.3239 15.7931 26.2896C15.67 26.281 15.5581 26.281 15.4238 26.281ZM4.50069 34.4865C3.97469 34.4951 3.49344 34.5552 3.06816 34.6496C2.11687 34.8642 1.56848 35.2504 1.38941 35.7054C1.19916 36.1688 1.38941 36.7182 2.02734 37.3104C2.67646 37.8941 3.76205 38.452 5.10504 38.761C6.43685 39.07 7.73508 39.0614 8.69757 38.8382C9.66005 38.6236 10.2084 38.2374 10.3875 37.7825C10.5666 37.319 10.3875 36.7697 9.73839 36.1774C9.10047 35.5938 8.01488 35.0359 6.67188 34.7269C5.91084 34.5552 5.17219 34.478 4.50069 34.4865Z" fill="#2774E8"/>
</svg>
