<svg width="32" height="29" viewBox="0 0 32 29" fill="none" xmlns="http://www.w3.org/2000/svg">
<path d="M16 0C24.837 0 32 6.49147 32 14.5C32 22.5085 24.837 29 16 29C7.163 29 0 22.5085 0 14.5C0 6.49147 7.163 0 16 0ZM19.352 5.03875C19.108 4.93 18.864 5.03875 18.804 5.25897C18.743 5.31425 18.743 5.36953 18.743 5.47919V6.2495L18.753 6.34375C18.8052 6.53019 18.9317 6.69255 19.108 6.79959C23.862 8.34022 26.3 13.1252 24.532 17.3601C23.618 19.6711 21.607 21.4301 19.108 22.2557C18.864 22.3653 18.743 22.5303 18.743 22.8058V23.5761L18.748 23.6558C18.7575 23.7429 18.7976 23.8248 18.8625 23.8896C18.9273 23.9544 19.0134 23.9986 19.108 24.0156C19.169 24.0156 19.291 24.0156 19.352 23.9613C20.7236 23.5731 21.9969 22.9429 23.0986 22.1069C24.2003 21.2709 25.1086 20.2457 25.7714 19.0903C26.4341 17.9349 26.838 16.6721 26.96 15.3746C27.082 14.0771 26.9195 12.7706 26.482 11.5302C25.386 8.39459 22.704 6.02838 19.352 5.03875ZM12.892 4.98438C12.831 4.98438 12.709 4.98438 12.648 5.03875C11.2764 5.42692 10.0031 6.05713 8.90142 6.89309C7.79971 7.72906 6.89135 8.75427 6.22864 9.90969C5.56594 11.0651 5.16197 12.3279 5.04001 13.6254C4.91805 14.9229 5.08049 16.2294 5.518 17.4698C6.614 20.551 9.235 22.9163 12.648 23.906C12.892 24.0156 13.136 23.906 13.196 23.6857C13.257 23.6314 13.257 23.5752 13.257 23.4655V22.6952L13.247 22.6227C13.205 22.4696 13.048 22.2947 12.892 22.2004C8.138 20.6598 5.7 15.8748 7.468 11.6399C8.382 9.32894 10.393 7.56991 12.892 6.74431C13.136 6.63466 13.257 6.46972 13.257 6.19422V5.42391L13.252 5.34416C13.2425 5.25713 13.2024 5.17518 13.1375 5.1104C13.0727 5.04562 12.9866 5.00144 12.892 4.98438ZM16.427 7.8445H15.512L15.424 7.85175C15.224 7.888 15.078 8.04387 15.024 8.28494V9.55006L14.817 9.57906C13.109 9.85456 12.039 10.923 12.039 12.2452C12.039 14.0596 13.257 14.7746 15.817 15.0501C17.524 15.3247 18.072 15.6555 18.072 16.5354C18.072 17.4145 17.219 18.0199 16.061 18.0199C14.476 18.0199 13.928 17.4154 13.745 16.5898C13.685 16.3705 13.501 16.2599 13.318 16.2599H12.282L12.203 16.2663C12.1044 16.2807 12.0149 16.3271 11.9511 16.3967C11.8873 16.4664 11.8535 16.5546 11.856 16.6451V16.6995L11.889 16.8626C12.179 18.1531 13.155 19.0766 15.086 19.3403V20.6607L15.094 20.7404C15.134 20.9199 15.307 21.0522 15.574 21.1002H16.488L16.576 21.093C16.776 21.0567 16.922 20.9008 16.976 20.6607V19.3394L17.183 19.3031C18.896 18.9751 20.023 17.8522 20.023 16.424C20.023 14.4991 18.743 13.8393 16.183 13.5638C14.354 13.3436 13.989 12.9041 13.989 12.1338C13.989 11.3635 14.599 10.8687 15.817 10.8687C16.914 10.8687 17.524 11.1985 17.828 12.0241C17.8597 12.104 17.9176 12.1731 17.9939 12.2222C18.0703 12.2713 18.1614 12.298 18.255 12.2987H19.23L19.309 12.2933C19.408 12.279 19.4978 12.2326 19.5619 12.1628C19.6259 12.0929 19.6597 12.0043 19.657 11.9136V11.8592L19.62 11.7024C19.4699 11.1391 19.1275 10.633 18.6417 10.2562C18.1559 9.87939 17.5513 9.651 16.914 9.60353V8.28494L16.906 8.20519C16.866 8.02484 16.694 7.89253 16.427 7.8445Z" fill="#2774E8"/>
</svg>
