<svg width="24" height="20" viewBox="0 0 24 20" fill="none" xmlns="http://www.w3.org/2000/svg">
<path d="M2.305 6.63996C2.2081 6.53598 2.09066 6.45326 1.96012 6.39703C1.82959 6.3408 1.6888 6.31229 1.54667 6.31329C1.06833 6.31329 0.706668 6.53496 0.473334 6.98996C0.240001 7.44496 0.298335 7.87663 0.671668 8.28496C2.04833 9.52163 2.92333 10.3966 3.29667 10.91C3.775 11.5633 4.00833 12.52 4.00833 13.7566C4.00833 15.285 4.59167 16.4166 5.75833 17.1983C6.41167 17.7116 7.12333 18.0966 7.91667 18.3533V13.815C7.91667 12.7183 7.53167 11.8083 6.79667 11.0733M17.2033 11.1316C16.48 11.855 16.0833 12.7533 16.0833 13.815V18.4C17.2033 18.0033 18.1367 17.385 18.9067 16.5683C19.665 15.7516 20.05 14.8533 20.05 13.7566C20.05 12.4383 20.2717 11.4933 20.715 10.91C20.82 10.7233 21.0183 10.49 21.3333 10.1983C21.6017 9.90663 21.8817 9.62663 22.1617 9.36996C22.43 9.12496 22.6983 8.86829 22.955 8.61163L23.34 8.28496C23.4443 8.18584 23.5271 8.06635 23.5833 7.93389C23.6395 7.80143 23.6679 7.65884 23.6667 7.51496C23.6667 7.18829 23.5617 6.89663 23.34 6.66329C23.1183 6.42996 22.85 6.31329 22.5 6.31329C22.15 6.31329 21.9167 6.41829 21.695 6.63996M12 19.3333C12.805 19.3333 13.5867 19.2283 14.3333 19.0066V14.8416C14.3333 14.1533 14.1233 13.6166 13.645 13.1033C13.1667 12.59 12.6183 12.3333 12 12.3333C11.3817 12.3333 10.8333 12.5666 10.39 13.045C9.92333 13.5 9.66667 14.0366 9.66667 14.7366V19.0066C10.4133 19.2283 11.195 19.3333 12 19.3333ZM8.5 5.91663C8.5 6.88496 7.71833 7.66663 6.75 7.66663C5.78167 7.66663 5 6.88496 5 5.91663C5 4.94829 5.78167 4.16663 6.75 4.16663C7.71833 4.16663 8.5 4.94829 8.5 5.91663ZM19 5.91663C19 6.88496 18.2183 7.66663 17.25 7.66663C16.2817 7.66663 15.5 6.88496 15.5 5.91663C15.5 4.94829 16.2817 4.16663 17.25 4.16663C18.2183 4.16663 19 4.94829 19 5.91663ZM13.75 2.41663C13.75 3.38496 12.9683 4.16663 12 4.16663C11.0317 4.16663 10.25 3.38496 10.25 2.41663C10.25 1.44829 11.0317 0.666626 12 0.666626C12.9683 0.666626 13.75 1.44829 13.75 2.41663ZM13.75 8.83329C13.75 9.80163 12.9683 10.5833 12 10.5833C11.0317 10.5833 10.25 9.80163 10.25 8.83329C10.25 7.86496 11.0317 7.08329 12 7.08329C12.9683 7.08329 13.75 7.86496 13.75 8.83329Z" fill="#F8F8F8"/>
</svg>
