<svg width="24" height="20" viewBox="0 0 24 20" fill="none" xmlns="http://www.w3.org/2000/svg">
<path d="M2.30517 6.64008C2.20826 6.53611 2.09083 6.45338 1.96029 6.39715C1.82975 6.34092 1.68896 6.31241 1.54684 6.31342C1.0685 6.31342 0.706836 6.53508 0.473502 6.99008C0.240169 7.44508 0.298502 7.87675 0.671836 8.28508C2.0485 9.52175 2.9235 10.3967 3.29684 10.9101C3.77517 11.5634 4.0085 12.5201 4.0085 13.7567C4.0085 15.2851 4.59184 16.4167 5.7585 17.1984C6.41184 17.7118 7.1235 18.0967 7.91684 18.3534V13.8151C7.91684 12.7184 7.53184 11.8084 6.79684 11.0734M17.2035 11.1317C16.4802 11.8551 16.0835 12.7534 16.0835 13.8151V18.4001C17.2035 18.0034 18.1368 17.3851 18.9068 16.5684C19.6652 15.7517 20.0502 14.8534 20.0502 13.7567C20.0502 12.4384 20.2718 11.4934 20.7152 10.9101C20.8202 10.7234 21.0185 10.4901 21.3335 10.1984C21.6018 9.90675 21.8818 9.62675 22.1618 9.37008C22.4302 9.12508 22.6985 8.86842 22.9552 8.61175L23.3402 8.28508C23.4445 8.18597 23.5273 8.06647 23.5835 7.93401C23.6397 7.80156 23.668 7.65896 23.6668 7.51508C23.6668 7.18842 23.5618 6.89675 23.3402 6.66342C23.1185 6.43008 22.8502 6.31342 22.5002 6.31342C22.1502 6.31342 21.9168 6.41842 21.6952 6.64008M12.0002 19.3334C12.8052 19.3334 13.5868 19.2284 14.3335 19.0067V14.8417C14.3335 14.1534 14.1235 13.6167 13.6452 13.1034C13.1668 12.5901 12.6185 12.3334 12.0002 12.3334C11.3818 12.3334 10.8335 12.5667 10.3902 13.0451C9.9235 13.5001 9.66684 14.0367 9.66684 14.7367V19.0067C10.4135 19.2284 11.1952 19.3334 12.0002 19.3334ZM8.50017 5.91675C8.50017 6.88508 7.7185 7.66675 6.75017 7.66675C5.78184 7.66675 5.00017 6.88508 5.00017 5.91675C5.00017 4.94841 5.78184 4.16675 6.75017 4.16675C7.7185 4.16675 8.50017 4.94841 8.50017 5.91675ZM19.0002 5.91675C19.0002 6.88508 18.2185 7.66675 17.2502 7.66675C16.2818 7.66675 15.5002 6.88508 15.5002 5.91675C15.5002 4.94841 16.2818 4.16675 17.2502 4.16675C18.2185 4.16675 19.0002 4.94841 19.0002 5.91675ZM13.7502 2.41675C13.7502 3.38508 12.9685 4.16675 12.0002 4.16675C11.0318 4.16675 10.2502 3.38508 10.2502 2.41675C10.2502 1.44841 11.0318 0.666748 12.0002 0.666748C12.9685 0.666748 13.7502 1.44841 13.7502 2.41675ZM13.7502 8.83342C13.7502 9.80175 12.9685 10.5834 12.0002 10.5834C11.0318 10.5834 10.2502 9.80175 10.2502 8.83342C10.2502 7.86508 11.0318 7.08342 12.0002 7.08342C12.9685 7.08342 13.7502 7.86508 13.7502 8.83342Z" fill="#F8F8F8"/>
</svg>
