<svg width="43" height="38" viewBox="0 0 43 38" fill="none" xmlns="http://www.w3.org/2000/svg">
<path d="M43 5.9375C43 7.27344 41.799 8.50547 39.775 9.5C37.3311 10.6949 33.6861 11.541 29.5037 11.7934C29.193 11.6598 28.8822 11.5336 28.5547 11.4223C25.2457 10.1977 20.8449 9.5 16.125 9.5C15.4279 9.5 14.7477 9.51484 14.0674 9.54453L13.975 9.5C11.951 8.50547 10.75 7.27344 10.75 5.9375C10.75 2.65703 17.9727 0 26.875 0C35.7773 0 43 2.65703 43 5.9375ZM13.4963 11.9566C14.3529 11.9047 15.2348 11.875 16.125 11.875C21.3488 11.875 25.9848 12.7879 28.9326 14.2055C31.0154 15.2074 32.25 16.4543 32.25 17.8125C32.25 18.1094 32.1912 18.3988 32.0736 18.6809C31.6873 19.6605 30.6459 20.5586 29.1342 21.3156C29.1258 21.323 29.109 21.323 29.1006 21.3305C29.0754 21.3453 29.0502 21.3527 29.025 21.3676C26.0855 22.8074 21.3992 23.7426 16.125 23.7426C11.1195 23.7426 6.64316 22.9039 3.67852 21.5828C3.51895 21.516 3.36777 21.4418 3.2166 21.3676C1.20098 20.3805 0 19.1484 0 17.8125C0 15.2297 4.48477 13.0254 10.75 12.2164C11.6318 12.1051 12.5473 12.016 13.4963 11.9566ZM34.9375 17.8125C34.9375 16.1871 34.0473 14.8512 32.9135 13.8492C35.2902 13.5227 37.4654 13.0031 39.3131 12.3277C40.682 11.823 41.9586 11.1996 43 10.4352V13.0625C43 14.4949 41.6143 15.816 39.3215 16.8402C38.0953 17.3895 36.6004 17.857 34.9207 18.2133C34.9291 18.0797 34.9375 17.9535 34.9375 17.8199V17.8125ZM32.25 24.9375C32.25 26.2734 31.049 27.5055 29.025 28.5C28.8738 28.5742 28.7227 28.641 28.5631 28.7152C25.6068 30.0363 21.1305 30.875 16.125 30.875C10.8508 30.875 6.16445 29.9398 3.225 28.5C1.20098 27.5055 0 26.2734 0 24.9375V22.3102C1.0498 23.0746 2.31797 23.698 3.68691 24.2027C7.0043 25.4273 11.4051 26.125 16.125 26.125C20.8449 26.125 25.2457 25.4273 28.5631 24.2027C29.2182 23.9652 29.848 23.6906 30.4443 23.3938C30.9566 23.1414 31.4354 22.8594 31.8889 22.5625C32.0148 22.4809 32.1324 22.3918 32.25 22.3102V24.9375ZM34.9375 24.9375V20.6402C36.5332 20.3285 38.0029 19.9352 39.3131 19.4527C40.682 18.948 41.9586 18.3246 43 17.5602V20.1875C43 20.9668 42.5801 21.7461 41.7486 22.4809C40.3797 23.6906 37.9693 24.6852 34.9207 25.3309C34.9291 25.2047 34.9375 25.0711 34.9375 24.9375ZM16.125 33.25C20.8449 33.25 25.2457 32.5523 28.5631 31.3277C29.932 30.823 31.2086 30.1996 32.25 29.4352V32.0625C32.25 35.343 25.0273 38 16.125 38C7.22266 38 0 35.343 0 32.0625V29.4352C1.0498 30.1996 2.31797 30.823 3.68691 31.3277C7.0043 32.5523 11.4051 33.25 16.125 33.25Z" fill="#2774E8"/>
</svg>
