<svg width="288" height="244" viewBox="0 0 288 244" fill="none" xmlns="http://www.w3.org/2000/svg">
<path d="M21.6095 5.02337C23.0158 1.68743 26.1095 -0.226629 29.2502 0.265558L144 16.9999L258.75 0.265558C261.891 -0.171942 264.985 1.74212 266.391 5.02337L285.938 50.6327C290.156 60.4218 285.656 72.289 276.656 75.2968L200.063 100.836C193.547 103.023 186.563 99.7968 183.094 93.0156L144 16.9999L104.906 93.0156C101.438 99.7968 94.4533 103.023 87.9377 100.836L11.3908 75.2968C2.3439 72.289 -2.10922 60.4218 2.10953 50.6327L21.6095 5.02337ZM144.516 51.9999L170.25 101.984C177.235 115.547 191.156 122 204.235 117.625L264 97.7187V189.047C264 201.078 256.969 211.578 246.938 214.531L151.266 242.422C146.485 243.844 141.469 243.844 136.735 242.422L41.0627 214.531C31.0314 211.523 24.0002 201.023 24.0002 188.992V97.664L83.8127 117.625C96.8439 122 110.813 115.547 117.797 101.984L143.485 51.9999H144.516Z" fill="#E9EEF6"/>
</svg>
