<svg width="35" height="31" viewBox="0 0 35 31" fill="none" xmlns="http://www.w3.org/2000/svg">
<path d="M4.56522 0V9.13043H1.52174V0H4.56522ZM1.52174 30.4348V21.3043H4.56522V30.4348H1.52174ZM6.08696 15.2174C6.08696 16.9065 4.73261 18.2609 3.04348 18.2609C2.44154 18.2609 1.85311 18.0824 1.35261 17.748C0.852116 17.4135 0.462026 16.9382 0.231672 16.3821C0.00131868 15.826 -0.0589523 15.214 0.0584809 14.6236C0.175914 14.0333 0.465777 13.491 0.891415 13.0653C1.31705 12.6397 1.85935 12.3498 2.44973 12.2324C3.0401 12.115 3.65205 12.1752 4.20817 12.4056C4.76429 12.6359 5.23962 13.026 5.57404 13.5265C5.90846 14.027 6.08696 14.6154 6.08696 15.2174ZM22.8261 3.04348C29.5522 3.04348 35 8.4913 35 15.2174C35 21.9435 29.5522 27.3913 22.8261 27.3913C17.3478 27.3913 12.7217 23.7696 11.1848 18.7935L7.6087 15.2174L11.1848 11.6413C12.7217 6.66522 17.3478 3.04348 22.8261 3.04348ZM21.3043 16.7391L28.1978 20.9848L29.4152 19.0217L23.587 15.5217V7.6087H21.3043V16.7391Z" fill="#2774E8"/>
</svg>
