<svg width="26" height="26" viewBox="0 0 26 26" fill="none" xmlns="http://www.w3.org/2000/svg">
<path d="M23.8757 13.8579C23.6635 13.6207 23.5465 13.3157 23.5465 13C23.5465 12.6843 23.6635 12.3793 23.8757 12.1421L25.5694 10.2704C25.756 10.0659 25.8719 9.80855 25.9005 9.53533C25.929 9.26211 25.8687 8.98704 25.7282 8.74958L23.0817 4.25219C22.9427 4.015 22.7309 3.82699 22.4767 3.71495C22.2224 3.60292 21.9387 3.57259 21.6659 3.62827L19.1782 4.12221C18.8617 4.18646 18.5321 4.13467 18.2518 3.97663C17.9714 3.81858 17.7597 3.56521 17.6565 3.26432L16.8493 0.885648C16.7605 0.627475 16.5914 0.403238 16.3658 0.244629C16.1403 0.0860209 15.8696 0.00106429 15.5922 0.00176771H10.2993C10.0108 -0.0130269 9.72521 0.0653633 9.48627 0.224966C9.24733 0.384568 9.06815 0.616609 8.97608 0.885648L8.23507 3.26432C8.13186 3.56521 7.9201 3.81858 7.63976 3.97663C7.35943 4.13467 7.02989 4.18646 6.71335 4.12221L4.15951 3.62827C3.90089 3.59237 3.63723 3.63246 3.40176 3.74349C3.16629 3.85452 2.96953 4.03152 2.83628 4.25219L0.189819 8.74958C0.0457984 8.98439 -0.0189579 9.25792 0.00480802 9.53106C0.0285739 9.8042 0.139645 10.063 0.322142 10.2704L2.00265 12.1421C2.21479 12.3793 2.33178 12.6843 2.33178 13C2.33178 13.3157 2.21479 13.6207 2.00265 13.8579L0.322142 15.7296C0.139645 15.937 0.0285739 16.1958 0.00480802 16.4689C-0.0189579 16.7421 0.0457984 17.0156 0.189819 17.2504L2.83628 21.7478C2.97535 21.985 3.1871 22.173 3.44133 22.285C3.69557 22.3971 3.97932 22.4274 4.25214 22.3717L6.73982 21.8778C7.05636 21.8135 7.38589 21.8653 7.66623 22.0234C7.94657 22.1814 8.15832 22.4348 8.26153 22.7357L9.0687 25.1144C9.16077 25.3834 9.33996 25.6154 9.5789 25.775C9.81783 25.9346 10.1034 26.013 10.3919 25.9982H15.6849C15.9623 25.9989 16.2329 25.914 16.4585 25.7554C16.684 25.5968 16.8532 25.3725 16.9419 25.1144L17.7491 22.7357C17.8523 22.4348 18.0641 22.1814 18.3444 22.0234C18.6248 21.8653 18.9543 21.8135 19.2708 21.8778L21.7585 22.3717C22.0313 22.4274 22.3151 22.3971 22.5693 22.285C22.8235 22.173 23.0353 21.985 23.1744 21.7478L25.8208 17.2504C25.9613 17.013 26.0216 16.7379 25.9931 16.4647C25.9646 16.1915 25.8487 15.9341 25.662 15.7296L23.8757 13.8579ZM21.9041 15.5996L22.9626 16.7695L21.2689 19.6551L19.7075 19.3431C18.7545 19.1518 17.7631 19.3108 16.9216 19.79C16.08 20.2692 15.4469 21.0353 15.1423 21.9428L14.6395 23.3986H11.252L10.7757 21.9168C10.4711 21.0093 9.83801 20.2432 8.99646 19.764C8.15492 19.2848 7.16354 19.1258 6.21052 19.3171L4.64911 19.6291L2.92891 16.7565L3.98749 15.5866C4.63846 14.8717 4.99835 13.9462 4.99835 12.987C4.99835 12.0278 4.63846 11.1023 3.98749 10.3874L2.92891 9.21751L4.62265 6.3579L6.18406 6.66986C7.13708 6.86122 8.12845 6.7022 8.97 6.22298C9.81154 5.74376 10.4447 4.9777 10.7492 4.07021L11.252 2.60141H14.6395L15.1423 4.08321C15.4469 4.9907 16.08 5.75676 16.9216 6.23598C17.7631 6.7152 18.7545 6.87422 19.7075 6.68286L21.2689 6.3709L22.9626 9.25651L21.9041 10.4264C21.2604 11.1396 20.905 12.0598 20.905 13.013C20.905 13.9662 21.2604 14.8864 21.9041 15.5996ZM12.9458 7.80071C11.8989 7.80071 10.8756 8.10564 10.0052 8.67695C9.13476 9.24825 8.45636 10.0603 8.05575 11.0103C7.65514 11.9604 7.55032 13.0058 7.75455 14.0143C7.95878 15.0229 8.46288 15.9493 9.20311 16.6765C9.94334 17.4036 10.8864 17.8988 11.9132 18.0994C12.9399 18.3 14.0041 18.197 14.9713 17.8035C15.9384 17.41 16.7651 16.7436 17.3467 15.8886C17.9283 15.0336 18.2387 14.0283 18.2387 13C18.2387 11.6211 17.6811 10.2986 16.6884 9.32354C15.6958 8.34849 14.3495 7.80071 12.9458 7.80071ZM12.9458 15.5996C12.4224 15.5996 11.9107 15.4472 11.4755 15.1615C11.0403 14.8759 10.7011 14.4699 10.5008 13.9948C10.3005 13.5198 10.248 12.9971 10.3502 12.4928C10.4523 11.9886 10.7043 11.5253 11.0744 11.1618C11.4446 10.7982 11.9161 10.5506 12.4295 10.4503C12.9428 10.35 13.475 10.4015 13.9585 10.5982C14.4421 10.795 14.8554 11.1282 15.1462 11.5557C15.437 11.9832 15.5922 12.4858 15.5922 13C15.5922 13.6895 15.3134 14.3507 14.8171 14.8382C14.3208 15.3258 13.6477 15.5996 12.9458 15.5996Z" fill="#24334A"/>
</svg>
