<svg width="31" height="30" viewBox="0 0 31 30" fill="none" xmlns="http://www.w3.org/2000/svg">
<path fill-rule="evenodd" clip-rule="evenodd" d="M17.0662 0.439428C16.7849 0.158219 16.4035 0.000244141 16.0057 0.000244141C15.608 0.000244141 15.2265 0.158219 14.9452 0.439428L4.44524 10.9395L1.44524 13.9396C1.30197 14.0779 1.1877 14.2435 1.10908 14.4265C1.03047 14.6095 0.989092 14.8063 0.987361 15.0055C0.985631 15.2047 1.02358 15.4022 1.099 15.5865C1.17443 15.7709 1.28581 15.9383 1.42664 16.0792C1.56748 16.22 1.73496 16.3314 1.91931 16.4068C2.10365 16.4823 2.30117 16.5202 2.50034 16.5185C2.69951 16.5167 2.89634 16.4754 3.07934 16.3968C3.26235 16.3181 3.42787 16.2039 3.56624 16.0606L4.00574 15.6211V25.5002C4.00574 26.6937 4.47984 27.8383 5.32376 28.6822C6.16767 29.5261 7.31226 30.0002 8.50574 30.0002H23.5057C24.6992 30.0002 25.8438 29.5261 26.6877 28.6822C27.5316 27.8383 28.0057 26.6937 28.0057 25.5002V15.6211L28.4452 16.0606C28.7281 16.3338 29.107 16.485 29.5003 16.4816C29.8936 16.4782 30.2699 16.3204 30.548 16.0423C30.8261 15.7642 30.9838 15.388 30.9873 14.9947C30.9907 14.6014 30.8395 14.2225 30.5662 13.9396L17.0662 0.439428Z" fill="#B7BBC0"/>
</svg>
