<svg width="40" height="40" viewBox="0 0 40 40" fill="none" xmlns="http://www.w3.org/2000/svg">
<path d="M3.37771 12.8C3.21157 12.5772 3.01024 12.3999 2.78645 12.2794C2.56266 12.1589 2.32129 12.0978 2.07763 12.1C1.25758 12.1 0.637538 12.575 0.237514 13.55C-0.16251 14.525 -0.0625041 15.45 0.577535 16.325C2.93768 18.975 4.43777 20.85 5.07781 21.95C5.89786 23.35 6.29788 25.4 6.29788 28.05C6.29788 31.325 7.29794 33.75 9.29807 35.425C10.4181 36.525 11.6382 37.35 12.9983 37.9V28.175C12.9983 25.825 12.3383 23.875 11.0782 22.3M28.9193 22.425C27.6792 23.975 26.9991 25.9 26.9991 28.175V38C28.9193 37.15 30.5194 35.825 31.8394 34.075C33.1395 32.325 33.7996 30.4 33.7996 28.05C33.7996 25.225 34.1796 23.2 34.9396 21.95C35.1196 21.55 35.4597 21.05 35.9997 20.425C36.4597 19.8 36.9397 19.2 37.4198 18.65C37.8798 18.125 38.3398 17.575 38.7799 17.025L39.4399 16.325C39.6187 16.1126 39.7607 15.8565 39.857 15.5727C39.9534 15.2889 40.002 14.9833 39.9999 14.675C39.9999 13.975 39.8199 13.35 39.4399 12.85C39.0599 12.35 38.5998 12.1 37.9998 12.1C37.3998 12.1 36.9998 12.325 36.6197 12.8M19.9987 40C21.3788 40 22.7189 39.775 23.999 39.3V30.375C23.999 28.9 23.6389 27.75 22.8189 26.65C21.9988 25.55 21.0588 25 19.9987 25C18.9387 25 17.9986 25.5 17.2385 26.525C16.4385 27.5 15.9985 28.65 15.9985 30.15V39.3C17.2786 39.775 18.6186 40 19.9987 40ZM13.9984 11.25C13.9984 13.325 12.6583 15 10.9982 15C9.33807 15 7.99799 13.325 7.99799 11.25C7.99799 9.175 9.33807 7.5 10.9982 7.5C12.6583 7.5 13.9984 9.175 13.9984 11.25ZM31.9994 11.25C31.9994 13.325 30.6594 15 28.9993 15C27.3392 15 25.9991 13.325 25.9991 11.25C25.9991 9.175 27.3392 7.5 28.9993 7.5C30.6594 7.5 31.9994 9.175 31.9994 11.25ZM22.9989 3.75C22.9989 5.825 21.6588 7.5 19.9987 7.5C18.3386 7.5 16.9985 5.825 16.9985 3.75C16.9985 1.675 18.3386 0 19.9987 0C21.6588 0 22.9989 1.675 22.9989 3.75ZM22.9989 17.5C22.9989 19.575 21.6588 21.25 19.9987 21.25C18.3386 21.25 16.9985 19.575 16.9985 17.5C16.9985 15.425 18.3386 13.75 19.9987 13.75C21.6588 13.75 22.9989 15.425 22.9989 17.5Z" fill="#2774E8"/>
</svg>
