<svg width="30" height="30" viewBox="0 0 30 30" fill="none" xmlns="http://www.w3.org/2000/svg">
<path d="M15 0C6.729 0 0 6.729 0 15V21.2145C0 22.7505 1.3455 24 3 24H4.5C4.89782 24 5.27936 23.842 5.56066 23.5607C5.84196 23.2794 6 22.8978 6 22.5V14.7855C6 14.3877 5.84196 14.0061 5.56066 13.7248C5.27936 13.4435 4.89782 13.2855 4.5 13.2855H3.138C3.972 7.4805 8.967 3 15 3C21.033 3 26.028 7.4805 26.862 13.2855H25.5C25.1022 13.2855 24.7206 13.4435 24.4393 13.7248C24.158 14.0061 24 14.3877 24 14.7855V24C24 25.6545 22.6545 27 21 27H18V25.5H12V30H21C24.309 30 27 27.309 27 24C28.6545 24 30 22.7505 30 21.2145V15C30 6.729 23.271 0 15 0Z" fill="#B7BBC0"/>
</svg>
