<svg width="12" height="11" viewBox="0 0 12 11" fill="none" xmlns="http://www.w3.org/2000/svg">
<path d="M1.56522 0V3.13043H0.52174V0H1.56522ZM0.52174 10.4348V7.30435H1.56522V10.4348H0.52174ZM2.08696 5.21739C2.08696 5.79652 1.62261 6.26087 1.04348 6.26087C0.837098 6.26087 0.635352 6.19967 0.463753 6.08501C0.292154 5.97035 0.158409 5.80738 0.0794305 5.61671C0.000452119 5.42604 -0.0202122 5.21623 0.0200506 5.01382C0.0603134 4.8114 0.159695 4.62547 0.305628 4.47954C0.451561 4.33361 0.637491 4.23423 0.839906 4.19396C1.04232 4.1537 1.25213 4.17436 1.4428 4.25334C1.63347 4.33232 1.79644 4.46607 1.9111 4.63767C2.02576 4.80927 2.08696 5.01101 2.08696 5.21739ZM7.82609 1.04348C10.1322 1.04348 12 2.9113 12 5.21739C12 7.52348 10.1322 9.3913 7.82609 9.3913C5.94783 9.3913 4.36174 8.14957 3.83478 6.44348L2.6087 5.21739L3.83478 3.9913C4.36174 2.28522 5.94783 1.04348 7.82609 1.04348ZM7.30435 5.73913L9.66783 7.19478L10.0852 6.52174L8.08696 5.32174V2.6087H7.30435V5.73913Z" fill="#2774E8"/>
</svg>
