<svg width="31" height="27" viewBox="0 0 31 27" fill="none" xmlns="http://www.w3.org/2000/svg">
<path d="M27.8264 7.176C27.8453 7.44943 27.8453 7.72262 27.8453 7.99847C27.8453 16.4024 21.4474 26.0947 9.74902 26.0947V26.0899C6.29302 26.0947 2.90865 25.1048 0 23.2384C0.502539 23.2989 1.0075 23.3292 1.51367 23.3304C4.37805 23.3327 7.16004 22.372 9.41262 20.6026C8.08542 20.5776 6.79924 20.1384 5.73389 19.3465C4.66855 18.5546 3.8773 17.4495 3.47079 16.1859C4.42428 16.3699 5.40659 16.3319 6.34241 16.0762C3.37512 15.4767 1.24048 12.8698 1.24048 9.84225V9.7616C2.12503 10.2544 3.11503 10.5274 4.12712 10.5577C1.33203 8.68992 0.471055 4.9721 2.15862 2.06561C3.75533 4.03039 5.7475 5.63732 8.00571 6.78204C10.2639 7.92675 12.7377 8.58363 15.2663 8.71002C15.0142 7.62472 15.0515 6.49227 15.3745 5.42591C15.6974 4.35956 16.2946 3.39667 17.1064 2.63354C19.668 0.225465 23.6968 0.348981 26.1047 2.90939C27.529 2.62814 28.8949 2.10592 30.1436 1.3652C29.6688 2.83787 28.6753 4.08796 27.3478 4.88297C28.6086 4.73432 29.8398 4.39673 31 3.88153C30.1465 5.1597 29.0718 6.27534 27.8264 7.176Z" fill="white"/>
</svg>
