<svg width="546" height="487" viewBox="0 0 546 487" fill="none" xmlns="http://www.w3.org/2000/svg">
<path d="M96.8576 179.083C103.278 179.083 109.435 181.779 113.975 186.577C118.515 191.374 121.066 197.882 121.066 204.667C159.101 204.607 196.039 218.13 225.888 243.042H278.42C310.666 243.042 339.667 257.88 359.615 281.417H435.774C458.657 281.41 481.074 288.259 500.423 301.168C519.773 314.078 535.264 332.519 545.099 354.355C487.846 434.2 395.153 486.083 290.524 486.083C222.983 486.083 165.851 470.657 119.589 443.666C117.896 448.605 114.802 452.872 110.729 455.885C106.657 458.897 101.804 460.509 96.8333 460.5H24.2083C17.7879 460.5 11.6304 457.805 7.09046 453.007C2.55052 448.209 0 441.702 0 434.917V204.667C0 197.882 2.55052 191.374 7.09046 186.577C11.6304 181.779 17.7879 179.083 24.2083 179.083H96.8333H96.8576ZM121.066 255.833V384.313L122.155 385.131C165.585 417.366 222.208 434.917 290.524 434.917C363.246 434.917 430.884 405.342 480.197 354.841L483.416 351.438L480.511 348.88C469.08 339.418 455.223 333.803 440.737 332.762L435.774 332.583H384.646C386.413 340.821 387.358 349.366 387.358 358.167V383.75H169.483V332.583L333.857 332.558L333.034 330.537C328.391 320.296 321.254 311.546 312.354 305.184C303.454 298.823 293.112 295.078 282.39 294.336L278.42 294.208H207.49C196.235 282.043 182.79 272.381 167.948 265.79C153.105 259.2 137.165 255.814 121.066 255.833ZM72.6492 230.25H48.4409V409.333H72.6492V230.25ZM411.566 76.75C421.103 76.75 430.547 78.7352 439.358 82.5922C448.17 86.4493 456.176 92.1027 462.92 99.2296C469.663 106.356 475.013 114.817 478.663 124.129C482.312 133.441 484.191 143.421 484.191 153.5C484.191 163.579 482.312 173.559 478.663 182.871C475.013 192.183 469.663 200.644 462.92 207.77C456.176 214.897 448.17 220.551 439.358 224.408C430.547 228.265 421.103 230.25 411.566 230.25C392.305 230.25 373.832 222.164 360.212 207.77C346.592 193.377 338.941 173.855 338.941 153.5C338.941 133.145 346.592 113.623 360.212 99.2296C373.832 84.8361 392.305 76.75 411.566 76.75ZM411.566 127.917C405.145 127.917 398.988 130.612 394.448 135.41C389.908 140.208 387.358 146.715 387.358 153.5C387.358 160.285 389.908 166.792 394.448 171.59C398.988 176.388 405.145 179.083 411.566 179.083C417.986 179.083 424.144 176.388 428.684 171.59C433.224 166.792 435.774 160.285 435.774 153.5C435.774 146.715 433.224 140.208 428.684 135.41C424.144 130.612 417.986 127.917 411.566 127.917ZM242.108 0C251.645 -1.50188e-07 261.089 1.9852 269.9 5.84225C278.711 9.69929 286.717 15.3527 293.461 22.4796C300.205 29.6064 305.555 38.0673 309.204 47.379C312.854 56.6908 314.733 66.671 314.733 76.75C314.733 86.8289 312.854 96.8092 309.204 106.121C305.555 115.433 300.205 123.894 293.461 131.02C286.717 138.147 278.711 143.801 269.9 147.658C261.089 151.515 251.645 153.5 242.108 153.5C222.846 153.5 204.374 145.414 190.754 131.02C177.134 116.627 169.483 97.1054 169.483 76.75C169.483 56.3946 177.134 36.873 190.754 22.4796C204.374 8.08614 222.846 3.03319e-07 242.108 0ZM242.108 51.1667C235.687 51.1667 229.53 53.862 224.99 58.6599C220.45 63.4577 217.899 69.9649 217.899 76.75C217.899 83.5351 220.45 90.0423 224.99 94.8401C229.53 99.638 235.687 102.333 242.108 102.333C248.528 102.333 254.685 99.638 259.225 94.8401C263.765 90.0423 266.316 83.5351 266.316 76.75C266.316 69.9649 263.765 63.4577 259.225 58.6599C254.685 53.862 248.528 51.1667 242.108 51.1667Z" fill="#B7BBC0" fill-opacity="0.1"/>
</svg>
